<svg id="svg" version="1.1" xmlns="http://www.w3.org/2000/svg" xmlns:xlink="http://www.w3.org/1999/xlink" width="400" height="405.57620817843866" viewBox="0, 0, 400,405.57620817843866"><g id="svgg"><path id="path0" d="M337.361 98.141 C 337.487 98.346,338.041 98.515,338.591 98.518 C 345.605 98.551,354.634 110.787,354.634 120.260 C 354.634 132.413,346.650 139.673,328.253 144.248 C 319.265 146.484,315.869 147.911,312.654 150.801 L 310.657 152.597 310.957 150.927 C 311.567 147.536,311.521 147.395,309.856 147.533 C 304.647 147.964,304.150 150.154,307.196 159.252 C 308.334 162.648,309.718 167.267,310.273 169.517 C 311.445 174.269,311.464 174.279,314.384 171.696 C 318.997 167.616,320.937 166.824,327.966 166.151 C 347.316 164.299,360.877 151.237,363.221 132.194 C 365.467 113.950,354.681 97.770,340.273 97.770 C 338.273 97.770,337.214 97.905,337.361 98.141 M90.696 109.248 C 71.857 115.277,65.373 142.547,77.667 164.035 C 85.180 177.166,95.832 184.985,109.665 187.523 C 113.151 188.162,122.754 188.868,123.048 188.507 C 123.370 188.111,133.171 186.615,135.436 186.616 C 138.158 186.617,142.194 187.940,146.701 190.307 L 150.093 192.088 150.330 182.568 C 150.460 177.332,150.658 170.706,150.770 167.844 C 151.068 160.174,148.924 157.862,143.030 159.499 C 141.315 159.975,141.313 159.883,143.123 162.825 C 145.329 166.412,145.154 167.011,142.528 164.860 C 139.387 162.286,136.710 161.853,120.691 161.329 C 103.805 160.777,100.887 160.346,95.167 157.562 C 82.254 151.276,76.990 134.410,83.641 120.632 C 86.046 115.649,88.833 112.732,94.424 109.350 L 95.725 108.563 94.238 108.576 C 93.420 108.584,91.826 108.886,90.696 109.248 M303.131 224.298 L 295.911 231.578 295.911 234.747 C 295.911 240.060,293.101 242.356,286.582 242.371 C 282.480 242.380,282.819 242.213,273.352 248.929 C 267.439 253.124,267.581 252.920,269.782 254.034 C 283.817 261.134,307.463 255.490,313.162 243.680 C 316.224 237.337,314.567 218.393,310.845 217.180 C 310.568 217.090,307.177 220.219,303.131 224.298 M163.197 228.585 C 163.197 229.680,165.728 237.086,167.120 240.065 C 178.232 263.845,198.306 270.222,223.015 257.824 C 231.355 253.640,231.299 253.762,225.651 252.042 C 223.504 251.388,218.656 249.859,214.878 248.645 L 208.009 246.436 205.399 247.661 C 198.933 250.693,193.267 248.867,190.509 242.863 C 189.109 239.816,188.771 239.598,178.263 234.949 C 175.526 233.738,171.408 231.889,169.112 230.840 C 163.918 228.467,163.197 228.192,163.197 228.585 M277.025 307.156 C 277.140 308.514,277.747 310.227,279.023 312.790 L 280.855 316.473 280.855 320.969 C 280.855 337.249,260.598 345.706,248.726 334.382 C 244.310 330.170,242.997 326.283,243.331 318.401 C 243.656 310.717,242.488 309.181,240.146 314.214 C 234.969 325.336,238.952 337.346,249.544 342.555 C 273.761 354.466,299.241 326.547,281.003 308.086 C 277.522 304.561,276.791 304.391,277.025 307.156 " stroke="none" fill="#f9faf2" fill-rule="evenodd"/><path id="path1" d="M183.829 2.480 C 183.216 2.556,180.539 2.877,177.881 3.192 C 155.707 5.826,134.364 12.268,113.569 22.602 C 99.940 29.375,80.043 42.485,73.407 49.064 C 72.991 49.477,72.517 49.814,72.353 49.814 C 72.189 49.814,71.537 50.400,70.904 51.115 C 70.270 51.831,69.631 52.416,69.483 52.416 C 69.335 52.416,68.139 53.462,66.825 54.740 C 65.511 56.018,63.613 57.839,62.608 58.787 C 60.953 60.349,55.755 65.843,52.809 69.145 C 26.220 98.947,8.796 137.551,3.144 179.182 C 2.315 185.284,1.944 211.413,2.569 219.592 C 4.010 238.425,10.592 264.819,17.848 280.855 C 24.740 296.086,29.354 304.546,36.762 315.536 C 38.318 317.845,39.758 320.006,39.963 320.340 C 40.167 320.673,40.612 321.293,40.950 321.718 C 43.310 324.679,47.212 329.790,47.212 329.920 C 47.212 330.007,47.588 330.474,48.048 330.958 C 48.508 331.443,49.721 332.825,50.743 334.030 C 51.766 335.235,53.859 337.564,55.394 339.207 C 56.930 340.849,58.523 342.612,58.933 343.123 C 59.974 344.417,68.108 351.926,73.234 356.324 C 75.586 358.341,77.565 360.127,77.633 360.293 C 77.701 360.459,77.952 360.596,78.191 360.597 C 78.429 360.598,79.229 361.141,79.968 361.805 C 80.706 362.468,81.577 363.178,81.903 363.383 C 83.582 364.438,91.281 370.082,91.388 370.337 C 91.456 370.499,91.659 370.632,91.840 370.632 C 92.020 370.632,93.585 371.547,95.318 372.664 C 136.187 399.029,186.761 409.173,234.201 400.521 C 246.552 398.268,263.988 393.153,272.677 389.232 C 273.494 388.863,275.167 388.138,276.394 387.621 C 293.952 380.221,311.299 369.362,327.886 355.390 C 332.924 351.147,344.754 339.322,348.885 334.402 C 350.520 332.454,351.973 330.859,352.112 330.857 C 352.252 330.856,352.464 330.562,352.584 330.204 C 352.703 329.847,353.342 328.940,354.003 328.189 C 358.496 323.086,369.690 306.236,373.247 299.221 C 373.704 298.321,374.184 297.500,374.313 297.398 C 374.856 296.970,380.872 283.952,383.113 278.358 C 384.447 275.029,385.687 271.970,385.869 271.561 C 386.052 271.152,387.153 267.807,388.315 264.126 C 389.478 260.446,390.553 257.100,390.704 256.691 C 392.255 252.495,395.994 233.378,397.102 223.978 C 398.111 215.417,397.748 185.374,396.541 177.509 C 391.985 147.820,383.597 123.671,369.812 100.558 C 367.617 96.877,365.523 93.364,365.159 92.751 C 364.796 92.138,364.402 91.552,364.284 91.450 C 364.167 91.348,363.343 90.177,362.455 88.848 C 360.730 86.269,354.791 78.265,353.193 76.366 C 352.663 75.737,351.759 74.616,351.182 73.875 C 350.015 72.376,347.602 69.690,342.472 64.181 C 340.581 62.150,339.033 60.261,339.033 59.984 C 339.033 59.707,338.794 59.480,338.502 59.480 C 338.209 59.480,336.325 57.932,334.314 56.041 C 329.475 51.490,326.281 48.723,321.561 44.992 C 319.414 43.295,317.602 41.762,317.534 41.585 C 317.466 41.408,317.239 41.264,317.030 41.264 C 316.689 41.264,313.846 39.214,313.383 38.634 C 313.281 38.506,313.030 38.334,312.825 38.251 C 312.463 38.104,302.299 31.469,300.294 30.071 C 299.740 29.684,299.218 29.368,299.133 29.368 C 299.049 29.368,297.328 28.430,295.308 27.284 C 293.288 26.138,289.468 24.112,286.819 22.782 C 282.667 20.697,280.434 19.664,274.164 16.925 C 258.111 9.912,233.467 3.827,216.171 2.605 C 211.347 2.264,186.350 2.168,183.829 2.480 M345.756 98.180 C 362.304 103.610,368.909 126.719,359.399 145.911 C 353.495 157.825,342.981 164.779,328.477 166.361 C 320.820 167.197,318.770 168.066,313.830 172.569 C 311.501 174.692,311.207 174.470,310.029 169.703 C 309.473 167.454,308.076 162.758,306.925 159.268 C 304.618 152.271,304.429 150.800,305.639 149.262 C 307.408 147.012,312.182 146.282,311.757 148.327 C 311.629 148.941,311.413 149.986,311.276 150.651 L 311.029 151.859 312.531 150.508 C 315.785 147.581,318.090 146.635,328.810 143.822 C 339.537 141.008,344.020 138.915,348.178 134.781 C 355.152 127.847,356.199 117.489,350.847 108.392 C 348.617 104.603,343.517 100.000,341.548 100.000 C 341.187 100.000,340.892 99.845,340.892 99.655 C 340.892 99.465,339.972 99.104,338.848 98.852 C 337.723 98.601,336.803 98.268,336.803 98.113 C 336.803 97.120,342.657 97.163,345.756 98.180 M96.283 108.476 C 96.283 108.640,95.572 109.121,94.703 109.545 C 85.424 114.074,79.156 127.312,81.355 137.732 C 81.571 138.755,81.918 140.386,82.126 141.357 C 83.436 147.459,89.195 154.330,95.539 157.359 C 101.259 160.090,105.594 160.683,123.048 161.122 C 136.007 161.447,139.564 162.094,142.844 164.718 C 144.574 166.104,144.597 165.770,142.946 163.180 C 140.883 159.941,141.103 159.352,144.552 158.894 C 149.704 158.211,151.455 160.655,151.100 168.030 C 150.957 170.994,150.734 177.722,150.606 182.979 L 150.372 192.538 146.706 190.659 C 138.804 186.607,136.792 186.280,128.597 187.716 C 105.401 191.780,85.834 181.949,75.853 161.215 C 66.471 141.724,71.360 118.638,86.560 110.651 C 90.245 108.714,96.283 107.364,96.283 108.476 M312.725 219.331 C 315.179 224.274,316.002 237.515,314.146 242.197 C 309.269 254.503,288.854 260.971,272.305 255.453 C 266.153 253.401,266.242 253.249,278.419 245.035 L 283.046 241.914 285.554 242.147 C 292.395 242.783,295.876 239.802,295.902 233.285 L 295.911 231.067 302.948 224.055 C 311.025 216.006,311.065 215.986,312.725 219.331 M174.418 232.900 C 180.553 235.660,185.731 237.918,185.924 237.918 C 186.118 237.918,186.479 238.095,186.726 238.312 C 186.973 238.529,187.730 239.035,188.409 239.437 C 189.308 239.971,189.976 240.897,190.874 242.854 C 193.530 248.644,198.364 250.202,205.085 247.433 L 208.126 246.180 217.167 249.059 C 222.140 250.643,227.170 252.236,228.346 252.600 C 231.312 253.518,231.139 253.885,226.580 256.355 C 225.149 257.130,223.894 257.858,223.792 257.972 C 223.690 258.085,223.104 258.374,222.491 258.612 C 221.877 258.851,219.786 259.716,217.844 260.536 C 208.204 264.603,197.687 265.528,190.056 262.981 C 187.273 262.052,184.955 261.160,184.572 260.872 C 184.368 260.718,183.171 259.920,181.913 259.099 C 173.920 253.886,165.416 240.375,163.022 229.089 C 162.688 227.510,161.720 227.187,174.418 232.900 M281.455 307.923 C 300.017 326.363,273.331 354.984,249.010 342.719 C 238.790 337.566,234.609 324.526,239.854 314.163 C 242.647 308.645,243.680 309.969,243.680 319.068 L 243.680 325.836 245.052 328.710 C 251.817 342.875,271.439 342.760,279.055 328.509 L 280.483 325.836 280.483 321.190 C 280.483 316.584,279.231 312.102,277.676 311.141 C 277.148 310.814,276.498 306.795,276.772 305.547 L 277.012 304.455 278.146 305.108 C 278.770 305.468,280.259 306.734,281.455 307.923 " stroke="none" fill="#040404" fill-rule="evenodd"/><path id="path2" d="M363.675 127.323 C 363.678 128.346,363.750 128.720,363.836 128.155 C 363.921 127.590,363.919 126.753,363.830 126.296 C 363.742 125.839,363.672 126.301,363.675 127.323 " stroke="none" fill="#76890a" fill-rule="evenodd"/><path id="path3" d="M353.532 102.719 C 353.532 102.783,354.075 103.326,354.740 103.927 L 355.948 105.019 354.856 103.810 C 353.838 102.684,353.532 102.431,353.532 102.719 M86.431 176.208 C 87.230 177.026,87.967 177.695,88.069 177.695 C 88.171 177.695,87.602 177.026,86.803 176.208 C 86.004 175.390,85.267 174.721,85.165 174.721 C 85.063 174.721,85.633 175.390,86.431 176.208 M150.313 183.457 C 150.315 185.093,150.380 185.716,150.459 184.841 C 150.537 183.967,150.536 182.629,150.456 181.867 C 150.376 181.106,150.312 181.822,150.313 183.457 M118.129 188.745 C 118.797 188.828,119.801 188.826,120.360 188.741 C 120.918 188.657,120.372 188.589,119.145 188.591 C 117.918 188.593,117.461 188.663,118.129 188.745 M298.313 228.717 L 296.468 230.669 298.420 228.824 C 299.493 227.810,300.372 226.932,300.372 226.873 C 300.372 226.595,300.027 226.904,298.313 228.717 M284.851 257.515 C 285.414 257.601,286.334 257.601,286.896 257.515 C 287.458 257.430,286.998 257.360,285.874 257.360 C 284.749 257.360,284.289 257.430,284.851 257.515 M276.666 306.691 C 276.666 307.407,276.743 307.700,276.836 307.342 C 276.930 306.984,276.930 306.399,276.836 306.041 C 276.743 305.683,276.666 305.976,276.666 306.691 " stroke="none" fill="#586308" fill-rule="evenodd"/><path id="path4" d="M338.755 97.664 C 339.317 97.749,340.237 97.749,340.799 97.664 C 341.362 97.579,340.901 97.509,339.777 97.509 C 338.652 97.509,338.192 97.579,338.755 97.664 M346.840 103.090 C 346.840 103.154,347.384 103.698,348.048 104.298 L 349.257 105.390 348.165 104.182 C 347.147 103.056,346.840 102.803,346.840 103.090 M94.366 108.450 C 95.532 108.593,95.567 108.637,94.924 109.154 C 94.281 109.672,94.289 109.682,95.054 109.312 C 96.530 108.599,96.400 108.176,94.725 108.238 C 93.300 108.291,93.260 108.314,94.366 108.450 M88.456 113.662 L 87.175 115.056 88.569 113.775 C 89.866 112.582,90.134 112.268,89.850 112.268 C 89.788 112.268,89.160 112.895,88.456 113.662 M80.649 115.149 L 79.368 116.543 80.762 115.262 C 82.060 114.069,82.327 113.755,82.043 113.755 C 81.981 113.755,81.354 114.382,80.649 115.149 M354.397 120.260 C 354.399 121.691,354.466 122.231,354.546 121.460 C 354.627 120.689,354.626 119.518,354.543 118.858 C 354.461 118.198,354.395 118.829,354.397 120.260 M80.801 133.271 C 80.800 135.112,80.863 135.911,80.941 135.048 C 81.019 134.186,81.020 132.680,80.943 131.703 C 80.866 130.725,80.802 131.431,80.801 133.271 M71.141 140.520 C 71.141 142.667,71.203 143.546,71.278 142.472 C 71.353 141.399,71.353 139.642,71.278 138.569 C 71.203 137.495,71.141 138.374,71.141 140.520 M312.251 150.762 C 311.438 151.627,311.338 151.651,311.095 151.040 C 310.899 150.546,310.844 150.637,310.886 151.389 L 310.942 152.406 312.162 151.223 C 312.834 150.572,313.383 149.989,313.383 149.927 C 313.383 149.655,313.082 149.876,312.251 150.762 M352.406 155.297 L 350.000 157.807 352.509 155.401 C 353.889 154.078,355.019 152.949,355.019 152.892 C 355.019 152.618,354.640 152.967,352.406 155.297 M108.457 160.857 C 108.917 160.946,109.670 160.946,110.130 160.857 C 110.590 160.769,110.214 160.696,109.294 160.696 C 108.374 160.696,107.997 160.769,108.457 160.857 M116.276 161.241 C 117.357 161.316,119.030 161.316,119.994 161.239 C 120.958 161.163,120.074 161.101,118.030 161.102 C 115.985 161.103,115.196 161.166,116.276 161.241 M128.346 161.605 C 128.908 161.690,129.828 161.690,130.390 161.605 C 130.953 161.519,130.493 161.450,129.368 161.450 C 128.243 161.450,127.783 161.519,128.346 161.605 M151.063 166.171 C 151.063 168.113,151.126 168.908,151.203 167.937 C 151.279 166.966,151.279 165.376,151.203 164.405 C 151.126 163.434,151.063 164.229,151.063 166.171 M326.115 166.427 C 326.473 166.521,327.059 166.521,327.416 166.427 C 327.774 166.334,327.481 166.257,326.766 166.257 C 326.050 166.257,325.757 166.334,326.115 166.427 M314.289 171.840 L 313.197 173.048 314.405 171.956 C 315.070 171.356,315.613 170.812,315.613 170.748 C 315.613 170.461,315.307 170.714,314.289 171.840 M150.651 172.677 C 150.655 173.494,150.732 173.785,150.821 173.323 C 150.909 172.860,150.906 172.191,150.813 171.836 C 150.720 171.480,150.647 171.859,150.651 172.677 M83.643 172.979 C 83.643 173.043,84.187 173.586,84.851 174.187 L 86.059 175.279 84.968 174.071 C 83.950 172.944,83.643 172.692,83.643 172.979 M87.918 177.323 C 88.717 178.141,89.454 178.810,89.556 178.810 C 89.658 178.810,89.089 178.141,88.290 177.323 C 87.491 176.506,86.754 175.836,86.652 175.836 C 86.550 175.836,87.120 176.506,87.918 177.323 M150.297 178.067 C 150.297 179.191,150.367 179.651,150.452 179.089 C 150.537 178.527,150.537 177.607,150.452 177.045 C 150.367 176.482,150.297 176.942,150.297 178.067 M150.308 189.777 C 150.310 191.208,150.377 191.748,150.457 190.977 C 150.538 190.206,150.536 189.035,150.454 188.375 C 150.372 187.715,150.306 188.346,150.308 189.777 M113.848 188.360 C 114.205 188.454,114.791 188.454,115.149 188.360 C 115.507 188.267,115.214 188.190,114.498 188.190 C 113.783 188.190,113.490 188.267,113.848 188.360 M304.078 222.955 L 301.673 225.465 304.182 223.059 C 305.562 221.736,306.691 220.607,306.691 220.550 C 306.691 220.276,306.313 220.625,304.078 222.955 M297.006 230.390 L 295.725 231.784 297.119 230.503 C 298.417 229.311,298.684 228.996,298.400 228.996 C 298.338 228.996,297.711 229.624,297.006 230.390 M314.956 233.086 C 314.956 233.801,315.033 234.094,315.126 233.736 C 315.220 233.378,315.220 232.793,315.126 232.435 C 315.033 232.077,314.956 232.370,314.956 233.086 M185.161 238.044 C 185.748 238.523,189.548 240.380,189.379 240.106 C 189.157 239.747,185.719 237.918,185.266 237.918 C 185.123 237.918,185.076 237.975,185.161 238.044 M177.323 255.204 C 178.434 256.329,179.426 257.249,179.529 257.249 C 179.631 257.249,178.806 256.329,177.695 255.204 C 176.585 254.080,175.592 253.160,175.490 253.160 C 175.388 253.160,176.213 254.080,177.323 255.204 M222.677 257.993 C 221.552 258.587,220.763 259.081,220.923 259.090 C 221.318 259.114,224.907 257.282,224.907 257.057 C 224.907 256.809,224.959 256.787,222.677 257.993 M280.581 257.140 C 281.043 257.229,281.712 257.226,282.068 257.133 C 282.423 257.040,282.045 256.967,281.227 256.971 C 280.409 256.975,280.118 257.051,280.581 257.140 M185.502 261.152 C 186.013 261.445,186.599 261.684,186.803 261.684 C 187.007 261.684,186.757 261.445,186.245 261.152 C 185.734 260.860,185.149 260.621,184.944 260.621 C 184.740 260.621,184.991 260.860,185.502 261.152 M198.048 264.215 C 199.122 264.290,200.878 264.290,201.952 264.215 C 203.025 264.139,202.147 264.078,200.000 264.078 C 197.853 264.078,196.975 264.139,198.048 264.215 M280.855 307.807 C 281.862 308.829,282.769 309.665,282.872 309.665 C 282.974 309.665,282.234 308.829,281.227 307.807 C 280.220 306.784,279.312 305.948,279.210 305.948 C 279.108 305.948,279.848 306.784,280.855 307.807 M241.217 311.803 C 240.755 312.392,240.768 312.405,241.352 311.947 C 241.707 311.669,242.260 311.541,242.580 311.664 C 242.914 311.793,243.065 311.731,242.934 311.520 C 242.583 310.952,241.780 311.084,241.217 311.803 M243.613 315.613 C 243.613 316.942,243.681 317.486,243.763 316.822 C 243.846 316.157,243.846 315.070,243.763 314.405 C 243.681 313.741,243.613 314.284,243.613 315.613 M280.801 321.004 C 280.800 322.844,280.863 323.644,280.941 322.781 C 281.019 321.918,281.020 320.412,280.943 319.435 C 280.866 318.458,280.802 319.164,280.801 321.004 M243.248 321.933 C 243.248 323.467,243.313 324.094,243.393 323.327 C 243.474 322.560,243.474 321.306,243.393 320.539 C 243.313 319.772,243.248 320.400,243.248 321.933 M275.627 333.550 L 274.535 334.758 275.743 333.667 C 276.408 333.066,276.952 332.522,276.952 332.458 C 276.952 332.171,276.645 332.424,275.627 333.550 M260.509 345.623 C 261.177 345.705,262.180 345.704,262.739 345.619 C 263.298 345.534,262.751 345.466,261.524 345.468 C 260.297 345.470,259.840 345.540,260.509 345.623 " stroke="none" fill="#849405" fill-rule="evenodd"/></g></svg>