<svg version="1.2" xmlns="http://www.w3.org/2000/svg" viewBox="0 0 1104 1594" width="1104" height="1594">
	<title>logo</title>
	<style>
		.s0 { fill: #000000 } 
		.s1 { fill: #fefefe } 
	</style>
	<path class="s0" d="m507.3 4.1c3.6 0.2 6.9 0.5 9.7 3 2.6 5.3-1.8 12.2-3.1 17.9-3.5 16.1 2 34.6 10.7 48.2 0.7 1.1 0.6 1 1.9 1.3 0.9-0.9 1.9-1.8 2.5-3 3.5-6.8-1.5-17.5-3.2-24.2-0.8-2.9-0.7-4.4 0.8-6.9 2-1.4 3.9-1.7 6.3-1.7 4.5 0.1 7.8 2.5 10.1 6.2 5.7 8.8 6.6 23.5 9.4 33.7 1.7 6.4 4.8 12.8 6.9 19.1 2.3 7 3.8 14.5 6.6 21.3 0.8 2 1.9 4.4 3.5 5.9 1.7 1.5 2.6 1.5 4.7 1.5 14.8-6.7 7.5-27.7 11.6-36.2 1.1-2 2.9-4.1 5.3-4.6 1.8-0.4 3.5 0.1 4.8 1.3 4.5 3.9 3.7 16.5 4.2 22.3 0.8 10 2.6 20.3 6 29.7 4.3 11.7 9.8 21.8 11.9 34.2 2.9 16.8 0.2 29.3 1.7 44.9 1.1 11.5 7.1 23 5 34.6-2.8 16-25.9 37.9-25.3 44.3 5.3 5.9 31.7 12.7 41.1 18 11.4 6.4 22.6 13.5 33.8 20.2 10.8 6.4 21.7 12.4 32 19.7 8.4 6 15.4 13.6 23.8 19.7 3.3-6 5.7-12.3 9.3-18.2 13.2-21.2 38.6-48.3 62-57.7 16.8-6.7 40.8-12.5 58.8-11.9 7 0.2 14.4 1.7 21.4 2.8 6.3 1 13.2 1.6 19.2 3.7 4.5 1.6 7.3 6.1 11.7 7.8 12.1 4.7 39.7-9.4 50.5-15.8 5.8-3.5 11.3-8 17.5-10.8 3.9-1.7 8.4-2.2 12.4-0.4 3.5 1.5 5.9 4.5 7.3 7.9 1.9 4.8 0.1 8-1.9 12.3 15.8-6.5 30.8-15.5 45.5-24.1 5.7-3.3 11.3-7.5 17.3-10.1 1.7-0.7 3.4-1.2 5.3-1.1 2.4 0.3 4.5 2.9 5.8 4.7 2.2 3 2.6 6.2 1.8 9.8-1.1 5.3-4.6 10.4-7.4 15-16.4 26.7-32.4 25.9-56.4 41 6.5 1 13.1 1.6 19.7 2.6 4.2 0.7 11 2.1 13.5 5.9 0.9 1.4 1.1 3.1 0.7 4.8-2.5 10.2-24.4 24-33.6 29.3 16.9-1.4 45.2-8 61.3-13.4 4.4-1.5 8.1-4.9 12.4-6.4 3-0.9 6.3-0.1 8.8 1.4 1.6 1.9 2.9 3.6 2.5 6.2-0.4 3.1-3.5 5.7-6 7.4-6.4 4.4-14.1 6.5-21 10-5.1 2.5-9.4 6.4-14.4 9.1-14.5 7.7-30.8 14.4-43.6 24.9-7.6 6.3-11.8 14.7-16.8 22.9-7.3 12.1-15.4 24.3-26.5 33.2-29 23.2-50 5.5-80.9 2.1-18.2-1.9-31.7 2.5-45.9 13.9-4 3.3-10.6 8.7-10.1 14.5 0.7 8.3 10.5 23.8 14 32.3 4.3 10.2 8.2 20.6 12.6 30.8 6.5 14.7 13.7 29.2 19.5 44.2 15.5 39.7 22.5 83 17.7 125.4-3.1 28.2-13 53.7-24.2 79.5-3.8 8.6-7.3 17.6-12.2 25.7-9.5 16-21.2 30.8-31.6 46.3-10.7 15.7-20.2 32.1-34 45.4-5.5 5.4-11.7 10.2-17.5 15.3-9 7.9-17.7 16.2-27.5 23-9 6.3-19.6 10.8-28 17.7l-0.6 0.5c9 21.2 14.2 43.3 21.5 65.1 3.7 10.8 9.7 21.5 11.9 32.6 0.5 2.5 1 5.2-0.5 7.5-2.2 1.3-4 1.4-6.6 0.9-17-3.5-33.2-28.7-42.3-42.3-9.4-15.9-18.5-32.3-24.9-49.7-25.1 5.9-49 9.1-74.4 12.4-10.1 1.4-20.1 3.5-30.2 4.6-47.2 4.8-95 2.1-141.4-8.2-13.9-3.1-28.2-6.5-41.4-12-20.2-8.5-40.3-18.6-58.2-31.3-7.8-5.5-14.8-12.2-22.7-17.5-18.9-12.4-40.1-23.1-55.8-39.8-12.9-13.9-22.6-31.2-29.8-48.7-9.6-23.5-14.7-52.2-4.3-76.4 10.6-24.8 31.8-42.2 56.3-52-3.7-8-7.7-16-10.8-24.3-15-39.4-21.1-83.1-20.4-125.2-6.1 1.2-12.1 3.2-18.2 4.4-16.5 3.4-33.3 0.7-48.3-7-6.8-3.5-12.8-8.2-19.8-11.4l-0.9-0.4c-5.4 9.1-8.2 19.5-17.6 25.6-10.6 6.9-25.7 9-38.1 6.4-6.1-1.3-11.8-4.2-17.1-7.6-12.4-8-47.7-38.8-55-50.1-13.1-20.3-26.3-64.7-25.9-88.4 0.3-13.5 3.5-25 6.2-37.9 0.9-4.3 0.4-9 1.6-13.1 0.5-1.9 1.2-2.7 2.9-3.5 1.8-0.9 4.1-1.2 5.9-0.5 8.5 3.2 7.3 21.5 10.1 28.8l2.5-1.2-0.7 1.1c4.8-7.9 3.9-19.3 6.1-28.2 1.9-7.8 5.1-12.7 11.9-16.8-2.6-32-1.6-52.6 6.4-83.7 1.9-7.4 3.5-15.3 6.5-22.4 3.5-8.3 8.6-12.2 16.8-15.6 3.2 1.3 6.5 2.5 9.5 4.3 3.7 2.3 7.1 5.6 8.6 9.9 2.1 6.1 1.2 13.7 1.1 20.1-0.1 13.1-2.3 55.7 0.7 66.1 0.6 2.5 1.7 3.5 3.8 4.7 8-2.9 4.2-16.7 9.3-21.8 2-2.1 6.8-2.4 9.7-2.1 1.3 0.2 3.7 0.7 4.5 2 5.4 8.1-8.2 35.7 8.9 56.7 5.8 7.1 13.8 11.2 22.8 12.1 19.8 1.7 30.2-7.4 42.9-20.9 6.3-6.7 12.1-13.3 17.1-21 6.1-9.4 11.9-21.3 20.6-28.5 10.8-8.9 25.7-12.8 39.5-11.5 34.2 3.4 49.5 36.7 68.9 60.1 6.5-6.3 12.7-12.9 19.6-18.7 10.3-9 21.7-16.9 32.8-24.8-2.8-18.9-0.6-38.5-6.9-56.8-3.3-9.7-9.6-18.1-14.7-26.9-5.6-9.7-9.6-20.5-12.3-31.3-5.7-22.4-2.5-45 9.6-64.8 4.1-6.7 11.7-17.8 18.3-22.1 3.8-2.5 8.8-3.9 11.9-7.2 4.4-4.7 7.6-11.6 11.4-16.9 15.1-21 33.4-39.1 59.2-45.4 5.4-10.3 8.2-21.2 12.2-32.1 2.7-7.3 6.8-15 8.4-22.7 0.6-3.1 0.2-6.7 0.1-9.8 3.2-2 6.6-3.4 10.1-4.7z"/>
	<path class="s1" d="m517.5 304.6c14.6-1.6 47.4-1.4 61 3.2 4.8 1.7 7.8 6.8 12.8 8.2 3.2 0.8 6.7-0.9 9.9-1 6.3 0 13.5 3.3 19.4 5.5 16.7 6.3 31.3 16.2 46.6 25.2 10.8 6.5 22.1 12.4 32.3 20 12.5 9.2 23.3 20.2 34.8 30.6 9.3 8.4 19.6 15.6 28.7 24.1 6.1 5.7 11 12.7 16.3 19.1 8.4 10.2 17.5 20.4 24.4 31.8 3.7 6.2 7.5 12.7 10.3 19.4 2.8 6.8 4.8 13.9 7.7 20.7 3.2 7.6 7.1 15 10.4 22.7 5.2 11.7 9.9 23.6 15.2 35.3 21.3 47.1 34.9 86.7 34.2 139.2-0.2 13.3-0.5 26.4-5.3 39.1-3.8-4.2-6.8-9.5-10-14.1-9.5-13.8-20.6-21.8-37.3-24.8-31.8-5.5-43.1 3.5-67.9 20.9l-0.7-0.4c-2.8-13.2 2.9-30.2 4.9-43.3 3.7-24.9 8.4-49.7 10.9-74.7 1.2-11.6 1.2-23.2 1.8-34.8 0.3-7.5 1.9-15 2.1-22.5 0.3-8.2-1.6-20.8-3.1-28.9-0.6-2.8-2-6.1-4.6-7.7-1-0.6-2.7-1.1-3.9-0.7-2.6 0.7-4.9 5-6.1 7.3-6.2 11.7-10.4 24.9-15.6 37.2-5.2 12.1-11.3 23.8-16.7 35.8-5.8 12.7-10.9 25.7-17.3 38-9.4 18.4-28.4 51.7-43.2 64.9-5.2 4.6-10 7.1-16.5 9.1-43.3-18.2-117.4-71.5-148.9-106.9-15.3-17.2-28-37.2-40.4-56.4-5.6-8.1-25.3-36.6-32.5-40.4-2 0-3.9 0-5.7 1-2.7 1.6-4.2 4.9-4.9 7.8-2.5 10.3-3.1 31.4-4.5 43.1-2.1 17.2-4.5 34.3-6.3 51.6-0.8 7.6-1.9 15.1-2 22.8-0.2 19.6 5.8 39.3 9.6 58.4 2.2 11.3 3.5 22.7 6.7 33.9 3.4 12.1 8.5 25.4 13.9 36.7 5.2 10.7 14.1 17.7 20 27.7l0.5 1c-12.5 0.5-26.7 0.4-39-2.3-37.8-8.5-77.9-35.1-116.8-20.9-29.5 10.9-47.3 38.6-53.3 68.3-2 9.9-2.1 21-6.5 30.2l-0.4 1c-2.4-3.8-4.7-7.6-6.5-11.7-8.3-20-10.9-46.9-2.4-67.3 3.7-8.9 9.4-17.7 16.5-24.3 6.9-6.3 14.8-10.3 23.1-14.2 5-2.3 9.9-5.1 15-7.1 10.9-4.1 27.3-5.7 38.7-4.5 4.7 0.5 9.6 1.5 14 3 6.9 2.3 22 11.6 29 8.8l0.2-1.7c-1-2.5-2.4-4.5-4.4-6.3-4-3.8-9.6-6.6-14.7-8.8-21.3-9.4-40-5.6-62.1-5.1-7.8-22.3-17.2-43.7-23.1-66.7-2.5-9.6-3.4-19.4-4.4-29.1-3.8-36.7-2.6-74.5 7-110.2 7.4-27.3 33.9-65.4 52.8-86.1 6.4-7.1 13.9-13 20.6-19.7 5.6-5.7 10.6-11.8 16.4-17.3 14-13.4 30.8-25.9 47.6-35.6 3.4 0.6 8.3 1.8 11.7 1 1.8-0.5 2.1-1.2 3-2.9 0.2-3.3-1.5-6.3-2.7-9.4 7.4-5.4 15.9-9.4 24-13.7 22-11.8 50.9-28.6 75.7-32.1z"/>
	<path class="s0" d="m757.6 467.3c2.9 0.2 5.9 0.3 8.8 0.7 7.8 0.9 14.8 2.8 19.9 9.3 4.5 5.8 13.8 24.9 12.6 31.9-0.4 2.5-1.4 3.7-3.4 5.1-11.7 0.5-9.2-24.4-20.9-32.1-4.1-2.7-9.1-2.6-13.7-1.5-14 3.5-21.3 20-28.1 31.3-5.6 9.4-11.3 19.1-16.1 28.9-1.8 3.6-2.7 7.7-4.8 11.2-0.8 1.4-1.4 2.2-2.8 3-2.1 0.4-3.4 0.2-5.4-0.5-0.8-0.9-1.5-1.4-1.8-2.7-1.6-8.2 26.3-58.9 32.5-67.4 5.9-8.3 12.8-15.6 23.2-17.2z"/>
	<path class="s0" d="m407.2 454.7c33-2 37 18.1 55 39.3 6 7 13.5 12.1 20.5 18-4.4 0.2-9 0.4-13.3-0.4-15.6-3-23.4-19.6-31.5-31.7-2.2-3.8-4.7-7.9-8.3-10.6-5.6-4.2-12.3-3.6-18.8-2.7-15.4 2.1-23.1 16.2-31.8 27.4-2.5 3.3-4.8 5.9-9.2 6.4-2-0.9-1.9-0.7-2.7-2.8 0.2-4 2-7.4 3.9-10.8 7.8-13.9 20.6-27.6 36.2-32.1z"/>
	<path class="s1" d="m80.9 280.4c1.4 0.2 2.5 0.5 3.8 1 3.4 6.3-0.4 57.3 0.1 68.3 0.2 6.8 1.1 13.3 3 19.8 4.7 3.1 10.1 4.9 15.3 6.9-1.1 3.7-1.9 7.3-2.2 11.1-1.2 11-1.6 43.9 5.8 52.2 2 2.2 5 3.2 7.9 3.2 2.7 0 4.6-0.8 6.6-2.7 1.6-4.8-2.4-8.1-4.4-12.4-2.8-6.2-6-22.1-3.3-28.6 0.6-1.4 1-1.5 2.3-2.1 1.4 0.6 14.3 14.5 19.2 17.8 12 8 27.8 9.3 41.7 6.4 23.2-4.9 48.3-37.6 60.9-56.8 7.6-11.7 15.8-19.4 30-22.2 33.6-6.7 44.6 27.4 64 46.3 2.7 2.6 6 4.6 9.1 6.6-5.9 11.1-17.7 19-26 28.5-30 34-48.7 63.7-64.1 106.6-20.6-3.9-39.5-15.7-60.9-15.2-11.4 0.2-21 5-31.6 5.5-1.4 0.1-4.2 0.1-5.4-0.6-6.2-3.6-12.1-13.8-17.9-18.8-1.9-1.6-3.6-2.9-6-2.7q-0.2 0.3-0.4 0.6c-1 2.5 1.4 7.8 2.6 10.1 3 5.5 7.3 10.7 11.7 15.1 16.7 16.1 33 2.2 52.1 2.5 10.3 0.1 21.2 5.5 31 8.4 8 2.4 16 4.7 24.3 6.1-1.7 9.1-3.4 18.2-5.5 27.2-21 2.7-44.3 8.3-63.7-2.9-7.9-4.6-15.3-10.9-23.5-14.8-2.6-1.2-5.4-1.7-8.1-0.5-7.1 3-8.6 16.1-11.2 22.5-2.1 4.9-5.1 8.8-10.2 10.8-10.1 3.9-21.4 4.4-31.3-0.2-10-4.6-17.7-12.4-25.8-19.6-5.1-4.6-10.9-8.5-16-13.2-12.1-11.1-20.5-26.9-26-42.2-7.2-19.2-11-39.6-11.3-60.1 0-3.4-0.5-8.2 1.1-11.2 0.7-1.2 0.9-1 2.2-1.4 2.7 1.4 3.6 5.5 5.9 7.7 3.9 3.6 8.5 6.5 12.2 10.3 5 5 9.1 10.8 14.3 15.7 5.9 5.5 12.5 10.4 18.2 16.2 2.1 2.3 3.9 4.7 5.2 7.6 5 10.7 5.5 29 11.2 37.9 2.1 3.2 6.3 4.3 9.9 4.9 2.1 0.3 3.2 0.3 4.9-0.9 1-5.8-5.8-10.8-7.5-16.1-3.4-10.7-3.6-21.8-8.5-32.2-5-10.4-16.2-14.8-24.3-22.5-7.1-6.9-12.4-14.9-17.2-23.4 2.3-11 1.2-22.6 4.1-33.3 0.6-2.2 1.2-4.2 3.2-5.3 8.2 2.8 17 45.4 29.5 49.5 2.4 0.8 4.7 0.3 6.9-0.8 1.2-2.4 0.8-4 0-6.5-1.7-5.6-5.2-11.1-7.7-16.4-7.8-16.8-16.1-35.3-17.7-53.9-2.6-29.2-0.7-49.2 9.6-76.8 2.1-5.6 4.1-12.4 7.9-17z"/>
	<path class="s1" d="m501.2 51.1c5.8 6.1 11.7 23.1 15.7 31.2 2.7 5.6 6 11 9 16.5 29 52 22.3 60.7 6.9 115 3.4 1.7 5.2 2.8 8.9 1.7 1.7-1.3 2.6-2.6 3.4-4.5 1.5-3.6 2.1-8 3.2-11.7 3.5-11.8 8.4-22.9 9.8-35.2 0.9-8.1 1-16.6-1.6-24.4-3.1-9.5-21.1-38.8-18.2-46.8 0.4-1.2 1.1-1.2 2.1-1.7 1.2 0.2 2.4 0.3 3.3 1.1 5.6 4.3 10.7 22.6 11.5 29.9 0.4 3.9-0.1 7.8 0.4 11.8l0.9 0.7c0.5-1.8 0.6-3 2.1-4.1 7.5 3.9 17.4 23.5 20.9 31.5 11.7 27-6.4 40.3-15.3 63.8-1.4 3.4-3 7.7-1.4 11.3 1.7 1 2.6 1.5 4.6 1 1.8-0.4 2.6-1.4 3.7-2.8 2.8-3.8 4.6-8.9 6.9-13.1 3.3-5.8 7.2-11.4 10.2-17.4 6.4-13.3 7.9-30 1.9-43.8-3.9-9-9.1-16.8-12.3-26.3 3.7-1.4 8-3.3 12-3.1 1.6 1 2.3 2 3.1 3.6 1.7 3.6 2.3 8 3.7 11.8 2.1 5.4 4.9 10.5 7 16 6.7 17.4 2.5 38.7 4 56.9 0.7 8.7 3.5 17.2 3.6 26 0.1 3.5-0.4 7-1.7 10.2-4.1 10.5-13.8 18.7-20 28-2.1 3.2-3.7 6.9-5.2 10.4-23.6-2.7-64.3-7.7-86.9-1.8-7.5 2-14.1 5.6-20.9 9.2-9.5 4.5-54.2 30-60.9 29.6q-0.3-0.4-0.5-0.8c-3.2-4.6-5.9-35-9.1-44.3-6.5-18.8-21.4-32.3-27-51.8-3.2-11.1-4.3-24.1-2.6-35.4 2.4-15.8 9.6-33.3 22.7-43 1.4 17.2 0.1 34.2 3.5 51.3 3.5 17.9 12.8 33.3 18.8 50.2 4.1 11.4 5.5 23 8.7 34.5 2.2 0.5 2.8 0.7 5.1 0.1 12.1-11.2-16.4-63.2-20.6-78.8-4.5-17-6.2-38.7-2.3-55.8 4.4-19.8 27.5-54.9 45-65.5 1.7-1.1 2.8-1.8 4.7-1.2-1.4 7.6-8.3 16.1-12.3 22.9-10.2 17.7-16 43.3-14 63.8 0.4 3.7 1.2 8.3 4.4 10.6 1.4 1 2.9 1.2 4.6 0.9 2-0.4 1.5-2.7 1.4-4.5-1-14.8-0.5-24.8 3.2-39.1 8.3-31.3 25.3-41 39.3-66.4 4.8-8.8 6.2-18.9 12-27.4z"/>
	<path class="s1" d="m1052.4 279.4l1 1.2c0.2 1.6 0.6 3.5 0 5.1-6 17-66.3 38.1-83.5 45.3-4 1.7-7.4 4-11.3 5.8-5.5 2.7-11.3 4.9-16.8 7.7-3.4 1.6-9.4 5-10.4 8.8-0.4 1.6 0.1 2 0.8 3.4 2 1.4 5.7 3.5 8.4 3.1 3.2-0.6 8.3-4.7 11.3-6.3 14.2-7.6 33.8-18.1 49.8-20.1 6.6 6.5 14.2 9.1 22.4 13.2-9.8 10.7-24.3 11-32.8 24.1-6.4-3.7-10.2-6.1-17.7-4.1-5.1 1.3-19.3 5.3-21.5 9.8-0.6 1.3-0.7 2.8-0.2 4.1 0.8 2.2 2.9 3.9 5 4.8 6.9 2.8 13.4-5.2 19.4-7.7q0.3-0.2 0.7-0.3c7.2 2.8 14.2 7.8 21.9 8.9 8.6 1.2 11-1.7 21.7 1.2-5.3 4.9-12.3 6.9-17.9 11.2-10.7 8.3-17.9 25.4-25.2 36.7-11.1 17.3-23.1 28.8-43.8 33.4-5.9-1.6-11.8-3.9-17.7-5.7-10.9-3.2-22.9-5.5-34.2-6.5-29.1-2.5-38.1 7.7-58.2 24.4-8.4-11.9-15.8-24.7-23.4-37.2 4.6-5.2 10.5-9.7 16.2-13.8 26.5-19.2 35.9-7.2 63.3-5.8 11 0.5 20.9-2.2 31-6.1 0.6-2.8 1.4-5.4 0.5-8.1-5.1-5.3-17.2 0.9-23.7 2-3.6 0.6-7.5 0.5-11.1 0.4-8.2-0.5-16.2-2.4-24.4-3.2-26-2.8-41.5 10.2-60.4 25.5-7.5-6.8-12.5-15.4-19.7-22.3-7.8-7.6-17.1-13.4-25.2-20.7-2.5-2.3-4.6-4.9-6.6-7.7 4.2-5.4 6.8-12.5 10.1-18.6 8.4-15.5 21-31.2 35.5-41.5 7-5 22.1-16.2 30.6-14.7l0.8 1.5-0.1-0.9c0.4 7.2-14.3 19.9-18.8 25.2-2.5 3.1-4.5 6.5-6.5 9.9q0.4 1.3 0.8 2.6c5.7 19.6-14.2 28.7-17.3 39.3-0.5 1.5 0 1.9 0.8 3.2 1.9 0.9 3.6 0.5 5.5-0.1 4.3-1.4 8.4-4.6 12.1-7.1 2.3-1.6 7.7-4.4 9-6.7 3.6-6.3-1.7-20.5 4.7-32 4.8-8.6 28.6-39.9 37.6-42.4 3.6-0.9 10.5-2.6 13.9-0.6 0.3 6.3-23.4 16.6-24.5 26.7-0.2 1.5 0.2 2.6 1.2 3.7 0.5 0.6 1.1 0.9 1.7 1.2 6.4 3 14.3-7.2 19.3-10.4 10.3-6.6 26.1-8.7 38.2-8.8 4.2 0 13.8-0.1 17 3-1 4.5-7.9 6.5-11.4 9-2.9 2.2-5.7 5.3-7.8 8.3-2.2 3.1-4.3 6.8-3.7 10.7 0.8 1 1 1.5 2.2 2 1.7 0.7 4.2 0.9 5.9 0.3 4.7-1.6 18.6-11.9 24.5-15.2 12.9-7 24.1-9.9 38.2-13.8 16.3-4.6 38.3-10.4 53.8-16.5 13.6-5.3 24.9-15.9 38.2-21.5z"/>
	<path class="s1" d="m433.6 526.7c9.9 6.6 28.1 38.1 36.3 49.9 10.6 15.2 21.5 30.7 34.8 43.7 15.3 14.9 32.7 30.2 50 42.6 16.1 11.6 32.8 22.8 49.2 33.9 5.6 3.7 12.6 5.9 17 11.1 0.2 0.9 0.5 1.7 0.3 2.6-2.8 11.6-37.6 65.7-47.3 74.9-8 7.6-19.6 13.8-28.9 19.7-2.9 1.2-5.8 2.2-8.9 2.8-14.9 2.8-30.5-1.5-43-9.9 3.8-5 8.8-9.1 13.1-13.8 8.1-8.9 11.7-23 12.5-34.7 1-13.5-2.2-24.7-7.5-36.9-1.3-2.9-2.7-6.7-4.9-9.1-4.6-4.9-17.9 6.2-24.3 5.8-1.7-1.1-1.7-1-2.2-3 2.5-8.9 16.1-18.2 23.7-23.2-2.4-4.5-5.5-8.6-8.9-12.4-9.8-11-34.6-25.6-50.1-22.2-6.3 1.4-13.2 7.2-19.6 6.8-0.9-1-1.4-1.8-1.8-3-2.2-6.7-2.2-15.5-2-22.5 0.3-14 2.9-28.2 4.1-42.1 1.4-15.8 1.6-32.2 4.3-47.8 0.8-4.9 1.9-8.8 4.1-13.2z"/>
	<path class="s1" d="m628.4 735.2c10.4 7.7 8.1 28.4 11.8 39.6 2.2 6.9 7.1 12.8 9.4 19.8 2.1 6.6 1.8 14 3.9 20.7 2.4 7.8 5.4 15.4 8 23.1 3.9 11.9 7.4 24 11.4 35.8 2.6 7.6 5.7 14.9 8 22.5 4.4 14.3 8.2 29.2 12 43.7 2.9 11.2 5.5 22.4 10 33q-9.9 3.2-19.8 6.5c-4.3-6.6-7.9-13.8-11.6-20.8-10.4-18.4-21.8-35.9-32.6-54-7.6-12.6-14.4-25.6-22.5-37.9-13.6-20.7-29.7-40.8-41.7-62.3 15.3-12.7 26.8-30.3 37.4-46.9 4.9-7.7 9.6-16.5 16.3-22.8z"/>
	<path class="s1" d="m412.9 800c2.6-0.3 67.4 4.4 68.5 4.8 5.8 2.1 10.5 10.4 12.8 15.8 3.8 8.9 5.7 18.4 5.7 28.1-0.1 16.2-8.3 44.5-14.4 59.7-6.3-0.9-12.7-2.9-18.9-4.4-12.4-2.9-24.8-6.4-37.2-9.2-15.2-3.5-39.9-6.4-53-14.8-1.8-1.1-3.2-2.3-3.5-4.5-0.7-4.5 1.2-9.9 2.4-14.2 2.1-7.1 4.3-14.4 7.9-21 4.8-8.7 12.1-16.1 18.3-23.8 4.2-5.3 7.9-10.8 11.4-16.5z"/>
	<path class="s1" d="m604.1 915.8c3.9-0.4 8-0.4 11.9-0.5-0.4 8.8-2.3 18-3.6 26.7-0.7 4.9-1.5 9.8-2.8 14.5-2 7.1-12.3 38.8-17.2 42.1-2 1.3-5 1.6-7.3 1.8-12 1.2-24.4 0.6-36.6 1.2-12.3 0.7-25.4 4.8-37.7 2.8q-0.1-0.6-0.2-1.2c-2.6-11.2-13.5-74.2-8.5-82 6.4-1.5 18.2 1.7 25.5 1.3 8.3-0.4 16.7-1.6 25-2.5 17.2-1.7 34.3-3.3 51.5-4.2z"/>
	<path class="s1" d="m366.6 891.7c9.7 0.7 19.2 5.7 28.5 8 9.8 2.5 19.8 3.7 29.6 5.9 9.6 2.1 19 5.3 28.4 8 6.6 1.9 22.5 2.2 27.4 5.4 0.7 7.8-23.1 44-28.2 51.5-5 7.4-6.4 15.3-10.6 22.8-0.4 0.7-0.1 0.5-1.3 0.8-10.3 2.3-56.1-15.2-66.4-21.5-5.7-15.3-5.1-33.1-7.3-49.2-1-6.9-3.2-13.6-4.1-20.5-0.7-4.6 1.4-7.8 4-11.2z"/>
	<path class="s1" d="m562 811.7c0.2 0.1 0.5 0.1 0.6 0.2 5 2.6 54.8 77.4 58.7 86.7-16.1 4.7-40.8 7-57.8 8.7-13.4 1.8-40.6 3.9-53.6 2.3-2.4-0.3-3.3-0.2-4.9-2.2-2-9.4 5.7-41.1 9.1-51.1 2.2-6.6 5.3-12.9 7.9-19.4 1.7-4.2 3.4-10.5 6.3-13.9 4.8-5.5 17.6-5.9 24.4-7.7 3.2-0.8 6.3-2.3 9.3-3.6z"/>
	<path class="s1" d="m764.3 557.7c1.5 1.6 2.1 3.1 2.4 5.2 2.4 14.9-2.3 32.9-4.5 47.6l-8.7 60c-2.7 19.3-3.3 39.4-7.3 58.5-2.1 9.6-6.8 18.3-10.1 27.6-1.5 4.5-2.2 9.5-4 13.9-0.5 1.5-1.4 3.2-2.4 4.4-1.2 1.6-1.8 2.2-3.7 2.5l-1.1-1.1c-2-6.1-0.4-14.3 0.3-20.5-2.1-4.6-4.4-9.5-9.5-11.3-4.2-1.6-8.1 0.1-11.9 1.9-3.3 2.3-8.8 7.2-12.9 6.9-1.6-0.1-1.8-0.6-2.9-1.7-1.5-8.1 8.1-17.1 12.1-23.7-2-7.7-11.8-12.9-16.2-19.7l-0.5-0.9c3-6 7.5-11.6 11.2-17.2 9.3-13.7 19.1-27.5 27-42.1 12-22.1 20.6-46.5 31.6-69.2 3.4-7.1 6.6-14.6 11.1-21.1z"/>
	<path class="s1" d="m803 718.6c3.3-0.6 6.4-0.4 9.6-0.2 16.3 1.2 29.7 4.6 40.6 17.4 4.2 4.9 9.6 11.7 9 18.5-0.7 7.1-57.3 48.8-66.6 56.3-5.5 3.9-27.3 22.5-31.9 22.7-0.9-0.6-1.6-1.1-2-2.1-2-4-1.5-9.9-1.4-14.2 0.3-26.8 8.4-51.1 18.1-75.9 4.7-11.9 13.1-17.6 24.6-22.5z"/>
	<path class="s1" d="m327.2 774.7c6-0.1 12-0.2 18 0.5 10 1.2 18.6 4.3 24.8 12.4 4.6 27.7-3.4 58.9-16.4 83.4l-18.7-13.1c-17.8-12.2-36.1-24.7-52.9-38-2.7-2.2-5.7-4.4-6-8-0.5-6.5 4.5-13.8 8.5-18.4 9.5-11 28.4-17.8 42.7-18.8z"/>
	<path class="s1" d="m867.5 768.8l0.8 0.4c0.3 0.8 0.4 1.3 0.4 2.1 0.4 9.1-4.9 19.7-8.6 27.9-5.7 12.6-11.4 25.3-18.4 37.3-9.6 16.3-21.2 31.6-31.7 47.4-6.2 9.3-11.3 19.7-18.7 28.1-3.5-4.7-6.4-9.7-9.3-14.7-7.5-14.4-14.6-29.2-16.7-45.4 6.1-8.7 15-14.1 23.2-20.5 14.6-11.7 29.7-22.7 44.4-34.1 11.8-9.2 22.9-19.3 34.6-28.5z"/>
	<path class="s1" d="m266.8 826c7.5 1.3 69.4 46.6 81.3 55.4q0 0.1-0.1 0.3c-4.3 12-15.2 23.6-23.4 33.2-4 5.7-7.9 11.5-12.8 16.5-16.9-9.1-42.1-21.6-48.4-41.2-4.3-13.4-2.9-51.8 3.4-64.2z"/>
	<path class="s1" d="m746.8 864.7c4.4 4.4 2 42.9 1.1 50.5-1.5 12-5.2 23.2-4.2 35.4-5.8 8.6-22.1 16.3-31.5 20.4-1.7-4.2-2.5-8.8-3.4-13.2-3.9-23-12.6-44-17.8-66.5 10.5-3.5 22.1-6.5 31.9-11.9 7.9-4.3 14.9-10.3 23.1-14.3z"/>
	<path class="s1" d="m741.8 785.2l1.2 0.7c2.3 5.1 6.2 51.4 6.9 60-8.7 9.5-45 29.4-57.6 32.4-1.6 0.4-1.5 0.3-2.9-0.6-5.1-8.2-8.3-16.6-11.4-25.7 18.5-8.1 38.9-27.1 49.5-44.6 5.3-8.8 4.3-16.5 14.3-22.2z"/>
	<path class="s1" d="m630.4 921c2 0.8 3.2 1.9 4.5 3.6 7.2 9.5 12.7 21 18.7 31.4 5.8 10 12.1 19.7 18.1 29.6l-7.5 2.1c-4.6 1-21.6 6-25.2 3.6-5.7-3.9-8.9-21.4-10.1-28.1-1.8-10.3-4.4-33.5 1.5-42.2z"/>
	<path class="s0" d="m215.9 1098.6q24.9-0.7 49.8 0.4c5.2 9.8 11.5 19 17.3 28.4q9.5 15.7 18.8 31.6l29.7 50.8c5.9 10 11.5 20.4 17.9 30.1 1.8 2.8 3.7 5.8 6.7 7.3l1.1-0.6c2-8.4 0.5-25.1 0.5-34.5v-62.3c0.1-16.9-0.2-34 2.1-50.7 20.8-0.7 41.8-0.4 62.6-0.1l-0.1 151.3c0.1 31.1 0.7 62.2 0.1 93.3-1 0.6-1.9 1.1-3 1.4-4.8 1.5-21.8 2.2-26.1-0.6q-0.2 0.1-0.4 0.2c-0.6 0.3-1.1 0.6-1.7 0.8-5.1 1.5-40.6 1.3-44.6-0.9-4.2-3.2-14.7-23.7-17.9-29.3l-51-85.7c-7.3-12.3-13-25.4-21.1-37.2-2 17-1.3 34.9-1.5 52.1l-0.9 99.8c-0.9 0.6-1.5 0.9-2.5 1.2-5.3 1.3-50.2 1-57 0.2-1.2-0.2-2.2-0.6-3.2-1.3-0.6-12.9-0.1-26 0-39l0.2-74.2c0.2-43.9-1.1-88.1 0.6-132z"/>
	<path class="s0" d="m382.3 1378.6c1.5 0.8 57.3 1.6 63.8 1.1 1.9 14.4 9.1 29.2 14.1 42.8l25.4 69.1 24.8 67.4c2.9 7.8 4.8 16.1 8 23.7q-0.2 0.1-0.5 0.2c-5.4 2.3-48.3 2.2-53.8-0.1-3.9-11.2-9.6-22.3-12.1-34-4.1 1.3-78.7 1.1-82.9-0.3-1.3 9.6-5.8 24.9-9.3 34.1-0.9 0.5-1.7 0.9-2.8 1.1-8.4 1.5-38.5 0.1-49.5 0.1-35.9 0.1-72.2 1.4-108.1 0.3-2.6 0-5-0.1-7.2-1.6-0.7-7.6-0.3-15.3-0.3-22.9l-0.3-120c-0.1-20-1.5-41.1 0.6-61 0.7 0.4 0.9 0.5 1.5 0.8 3.7 1.3 46.5 1.2 50.2-0.4 2.3 52.1-1.1 104.6-0.1 156.8 0.6 0.4 1.2 0.7 1.8 0.9 2.1 0.7 53.3 1.5 57.4 1.1 1-0.1 1.6-0.5 2.4-0.9-0.3 8.9-5.7 24.9-1 32.6 1.6 1 1.7 1.1 3.6 1 5-7.6 7.7-21.9 11.1-30.8l41-112.1c5.3-14.7 9.9-31.7 16.6-45.6 1.1-2.2 3.5-2.6 5.6-3.4z"/>
	<path class="s1" d="m410.4 1438c1.3 0.7 2 1.4 2.7 2.7 2.7 5.1 4.3 11.3 6.2 16.8 5 14.5 10 31.3 17.4 44.8-0.8 0.4-1.5 0.8-2.4 0.9-4.5 1.1-17.6 1.5-21.6-1-0.4 0.3-0.4 0.3-1 0.6-4.6 2.2-20.8 1.4-25.6-0.4q7.5-17.8 13.8-36c3.3-9.4 6.1-19.4 10.5-28.4z"/>
	<path class="s0" d="m664.9 1098.5c28.1-0.5 56 0.9 84 2.4 14.3 0.8 30.1 0.5 44 4.1 9 2.3 17.3 6.6 24.3 12.8 14.7 12.8 24 35.5 25.3 55 0.9 15.6-6.1 33.1-16.6 44.6-7.4 8.2-21.1 19.4-32.8 20 3.4 9.2 11.7 17.6 17.5 25.6 12.9 18 25.1 36.4 37.7 54.6 4.8 7 10.5 13.6 15.2 20.6 1.3 2 2.4 3.8 2.9 6.1l-1.1 1c-4.6 1.1-42.3 1.6-45.7-0.4q-0.2 0.1-0.4 0.2c-5.2 2.5-22.8 1.6-28.3-0.2-4.1-1.4-45-71.7-50.4-81-1.9-3.1-5.3-9.7-8.9-10.7-1.2 1.5-1.4 2.7-1.5 4.5-0.5 8.2 0.5 16.8 0.4 25.1-0.1 19.7-1.3 39.6 0.7 59.3-0.8 0.4-1.5 0.8-2.4 1.1-5.9 1.7-61.9 1.6-65.7-0.6-0.9-12.5-0.4-25.2-0.4-37.7l0.1-66.5-0.1-82c0-15.5-0.4-31.2 0.3-46.7 0.2-3.8 0.4-7.7 1.9-11.2z"/>
	<path class="s1" d="m743.6 1152.8c2.1 0.7 4.9 0.6 7.1 0.8 8.5 0.6 15.4 2.5 21.5 8.6 4 4 5.9 9.7 5.8 15.4-0.1 5.9-2.4 12.6-6.7 16.7-1.9 1.8-5 4.1-7.7 3.9-1 0.9-1.9 1.5-3.3 1.8-6.8 1.3-22.9 2.4-28.5-1.1-2.1-6.3-2.4-32.8-0.8-39.3 1.1-5 8.1-3.9 11.7-6.2q0.4-0.3 0.9-0.6z"/>
	<path class="s0" d="m457.5 1098.3q58.3 0.6 116.6 0.2c19.6 0 39.4-0.4 58.9 0.7 2.3 12.3 2.7 28.9 0.4 41.3-1.1 5.8-2.6 10.5-5.6 15.5-7.4 12.4-89.8 126.6-95.7 130.7 0.7 0.3 0.9 0.5 1.6 0.8 3.6 1.6 97.2 2.5 100.9 1 0 17.3 0.3 34.6-0.1 52l-0.9 2.1c-0.8 0.6-1.4 1-2.5 1.1-6.7 1.1-14.6 0.4-21.4 0.4-14.5 0-29-0.1-43.5 0.1-9.8 0.1-19.7 1.2-29.5 1.5-13.1 0.5-26.3 0-39.3 0.1-11.8 0.1-23.7 0.8-35.4 0.4-2.1-0.1-3.6-0.3-5.4-1.5 0.1-11.1-2-41.9-0.1-50.1 1.6-6.9 68.5-96.7 78-109.6 5.5-7.6 15.4-17.3 18-26-0.5 0.2-0.7 0.3-1.3 0.4-9.3 2.2-45.7-0.9-57.1-1.3-11-0.2-22.2 0.4-33.1-0.4-1.5-0.1-2.9-0.6-4.2-1.4-0.6-9.1-0.1-18.5 0-27.6 0-10.1-0.4-20.4 0.7-30.4z"/>
	<path class="s0" d="m562.9 1377c5.7 2.4 16.5 0.7 22.8 0.7 20.9 0 52.3 2.6 70 13.8 11.2 7.1 20.6 19.9 23.4 32.9 2.7 12.6 0.6 27.9-7 38.6-3.4 4.8-7.7 8.8-10.9 13.7 1.4 4.3 10.2 6.4 14 8.4 7.3 3.8 13.2 16.2 15.6 23.7 4.7 14.7 3.7 33.5-3.6 47.2-2.4 4.5-8.1 13.7-13 15.2-4.7 6.9-17.5 10.9-25.2 12.5-6.7 1.4-14 1.7-20.8 1.9-14.2 0.3-28.5-0.8-42.7-1-13.8-0.2-28.1 0.7-41.8-0.4-1.9-0.1-3.5-0.4-5.2-1.5-0.8-10.5-0.3-21.5-0.3-32.1l0.1-57.2-0.1-69.6c0-15.2-0.3-30.7 1-45.9 0.4 0.2 1 0.5 1.4 0.6 4 1.1 18.8 0.4 22.3-1.5z"/>
	<path class="s1" d="m591.3 1500c8.5 3 30.4-1.1 39.9 4.5 4.3 2.5 7.3 6.7 8.6 11.5 1.1 4.1 1.1 9.7-1.4 13.4-1.4 2-3.5 3.7-5.9 4.1-3.2 3.4-9.8 4.4-14.2 5.4-6.9 1.4-22.5 4.5-28.2 0.8-0.6-1.9-0.9-3.9-1.1-5.9-0.6-7.3-2.4-28.3 2.3-33.8z"/>
	<path class="s1" d="m590 1426c8.9 3.2 20.7-2.7 29.4 2 4.1 2.3 6.4 6.9 7.7 11.3 0.9 3 1.6 7.1-0.2 9.9-1.2 2-3.4 2.8-5.7 3.2-0.4 0.5-0.6 0.8-1.1 1.2-5.3 4.8-17.4 6.6-24.4 6-2.4-0.2-4.4-0.8-6-2.7-1.7-6.2-1.9-25.3 0.3-30.9z"/>
	<path class="s0" d="m769.6 1376.9c6.6 2.4 18.5 0.2 25.8 0.6 5.3 0.3 10.7 1.6 15.9 2.9 20.3 5.4 38.5 14.8 48.7 34.1 2.9 5.7 4.6 12.3 7.9 17.7q0.1 0.2 0.2 0.4c-0.5 0.6-1.1 1.1-1.8 1.6-2.7 1.9-47.5 13.9-50.4 13.4-4.6-6.6-2.4-14.4-12.4-21.4-5.8-4.1-14-5.3-20.9-4-6.3 1.1-12.7 4.2-16.4 9.7-1.6 2.2-3.2 5.4-2.5 8.2 2.9 11.4 32.9 17 42.8 20.5 9.4 3.4 19.2 7.1 27.9 12.1 14.6 8.6 25.1 20.1 29.4 36.7 3.9 15.1 2.7 33.8-5.4 47.4-9 15-24.1 24.5-40.7 28.6-6.5 1.5-21.2 5.4-26.8 1.9-6.6 3.7-27.5-1.7-35.1-3.3-18.1-3.9-34.8-13.3-44.9-29.3-3.7-5.9-10.8-18.8-8.9-25.9 2.8-11 39.8-9.1 52-17.1q0.3-0.1 0.5-0.3c1.9 5.3 3.7 10.7 6.1 15.8 3.8 7.6 9.6 14.3 17.9 16.9 7.1 2.3 14.8 1.6 21.4-1.8 4.8-2.5 9.7-6.9 11.1-12.3 4.8-17.7-38.6-28.8-49.8-33-10-3.8-20.8-8.1-29.8-13.9-7.8-5-14.2-11.9-18.6-20-7.4-14-8.6-25.4-4-40.3 6.5-20.5 20.8-34.9 41.8-40.6 5.8-1.5 13.3-2.2 18.6-5.1q0.2-0.1 0.4-0.2z"/>
</svg>