<svg version="1.2" xmlns="http://www.w3.org/2000/svg" viewBox="0 0 168 306" width="168" height="306">
	<title>transparent_nzr-svg</title>
	<style>
		.s0 { fill: none;stroke: #f0554d;stroke-opacity: 1;stroke-width: 2 } 
		.s1 { fill: none;stroke: #292c29;stroke-width: 2 } 
		.s2 { fill: none;stroke: #6e554d;stroke-opacity: 1;stroke-width: 2 } 
		.s3 { fill: none;stroke: #ff8080;stroke-width: 2 } 
		.s4 { fill: #ff0000 } 
		.s5 { opacity: 1;fill: #e0ad9d } 
		.s6 { fill: #ffffff } 
		.s7 { fill: #000000 } 
		.s8 { opacity: 1;fill: #535953 } 
	</style>
	<g id="Layer">
		<path id="Layer" fill-rule="evenodd" class="s0" d="m161.3 1.3l5.6 3.7"/>
		<path id="Layer" fill-rule="evenodd" class="s0" d="m167 163.8l-4 4.7"/>
		<path id="Layer" fill-rule="evenodd" class="s0" d="m7 168.8q-3.7-2-5.7-5.6"/>
		<path id="Layer" fill-rule="evenodd" class="s0" d="m1 7l4-5"/>
		<path id="Layer" fill-rule="evenodd" class="s1" d="m24.3 193q-0.6 1.6 0.9 1.5"/>
		<path id="Layer" fill-rule="evenodd" class="s1" d="m40.3 220q-0.8 1.6 1 1.5"/>
		<path id="Layer" fill-rule="evenodd" class="s2" d="m158.2 213.8q-2.4 0.8-3.2 3.2"/>
		<path id="Layer" fill-rule="evenodd" class="s1" d="m135.5 225q1.1-1.4-0.5-1.5"/>
		<path id="Layer" fill-rule="evenodd" class="s3" d="m27.7 60.9c-5 2.3-10.2 6.7-10.8 12.3-0.7 5.8 2.7 8.2 6.5 11.6q0.2 0.2 0.3 0.3 0 0.2 0 0.4 0 0.2-0.1 0.3-0.1 0.2-0.3 0.3-5.9 3.2-6.4 9.2c-0.6 6.4 5.2 11.4 10.5 13.8q0.1 0 0.1 0.1 0.1 0.1 0.1 0.2 0 0.1 0 0.2 0 0 0 0.1c-7.6 10.7 2.3 18.1 11.5 21q0.1 0 0.2 0 0.1 0.1 0.1 0.1 0.1 0.1 0.1 0.2 0 0.1 0 0.1 0.4 2.9 1 4.8c1.6 6 11.4 9.2 16.7 10.5 4.5 1.2 8.2 4.5 12.3 5.6q14.2 3.8 30.3-0.2c3.7-1 6.4-4 10.4-5.1 7-1.8 18.7-5.2 18.1-14.9q0-0.1 0-0.2 0-0.1 0.1-0.2 0-0.1 0.1-0.2 0.1-0.1 0.2-0.1c8.9-3.4 20.5-10.7 12-21.2q-0.1-0.1-0.1-0.2 0-0.1 0-0.1 0-0.1 0.1-0.2 0-0.1 0.1-0.1c11.4-5.9 15.1-14.6 4-23.7q-0.1-0.1-0.1-0.2 0-0.1 0-0.2 0-0.1 0-0.1 0-0.1 0.1-0.2c3.9-3.3 7.5-6.4 6.7-12-0.8-5.2-5.8-9.5-10.4-11.9q-0.1-0.1-0.2-0.1-0.1-0.1-0.1-0.2 0-0.1 0-0.2 0-0.1 0.1-0.2c7.5-11.2-3.5-17.5-12.3-21.1q0 0-0.1-0.1-0.1-0.1-0.2-0.1 0-0.1 0-0.3-0.1-0.1 0-0.2c1.5-11.8-14.6-12-21.1-16.2-11.3-7.3-34.5-7.7-45.3-0.2q-1.4 1-3.1 1.4c-6 1.4-17 4.8-18.7 11.6-0.4 1.4 0.6 3.5-1.1 4.4-5.7 2.8-12.3 5.8-13.9 11.6q-1.6 5.3 2.7 9.2 0.1 0.1 0.1 0.2 0 0.1 0 0.1 0 0.1 0 0.2-0.1 0.1-0.2 0.1z"/>
		<path id="Layer" fill-rule="evenodd" class="s3" d="m101.3 21.2q-17-4.7-34.1-0.2-0.2 0-0.3 0.1-0.1 0-0.2 0.1-0.1 0.1-0.2 0.2 0 0-0.1 0.1c-0.4 1 9.3-0.6 10.1-0.7q8.1-0.7 24.6 1c0.4 0.1 1.2-0.3 0.2-0.6z"/>
		<path id="Layer" fill-rule="evenodd" class="s3" d="m105 27.3q2.9-2.6-1-3.1-20-2.7-40 0.1c-2.1 0.2-2.6 1.9-1 3.2 3 2.5 7.1 3.7 11.3 4 9.5 0.8 24.4 1.7 30.7-4.2z"/>
		<path id="Layer" fill-rule="evenodd" class="s3" d="m107.6 27.6q-2.7 3.8-7.5 4.6c-1.3 0.2-0.7 0.9-0.1 0.9q12.8 1.5 25.2 5 0.2 0 0.5 0 0.2-0.1 0.4-0.2 0.1-0.1 0.2-0.3 0.1-0.2 0.1-0.4c0.2-7.2-12-10.6-17.5-11.9q-0.1 0-0.3 0-0.2 0-0.3 0-0.1 0-0.2 0.1 0 0.1 0 0.2l-0.1 1.1q0 0.1 0 0.3-0.1 0.1-0.1 0.2-0.1 0.1-0.1 0.2-0.1 0.1-0.2 0.2z"/>
		<path id="Layer" fill-rule="evenodd" class="s3" d="m43.3 33.1q-1.7 1.5-1.3 3.9 0.1 0.3 0.2 0.5 0.2 0.3 0.4 0.4 0.3 0.2 0.6 0.2 0.3 0 0.6-0.1 11.1-3.4 22.7-4.5 1-0.1 1.8-0.7 0.6-0.4-0.1-0.5-5.7-1.3-8.3-6.4-0.1-0.1-0.2-0.2 0-0.1-0.1-0.1-0.1 0-0.2-0.1-0.1 0-0.2 0.1-6.9 1.2-12.8 4.8-0.1 0.1-3.1 2.7z"/>
		<path id="Layer" fill-rule="evenodd" class="s3" d="m123.8 39.9q-13.6-4.3-27.8-4.9c-16.1-0.7-33.9-0.3-50.1 4.3q-3.7 1.1-0.3 2.9c16.5 9.2 35.8 8.9 55 7q12.6-1.3 23.4-7.7 1.7-1-0.2-1.6z"/>
		<path id="Layer" fill-rule="evenodd" class="s3" d="m126.2 41.6q-6.8 5.7-15.4 7.7c-1.6 0.3-9.5 2-9.5 2.1q0 0 0 0.1 0 0 0.1 0.1 0.1 0 0.2 0.1 0.1 0 0.2 0 18.7 1 36.2 7.8 0.2 0 0.4 0.1 0.2 0 0.3-0.1 0.2 0 0.4-0.1 0.1 0 0.2-0.2c8.4-8.8-5.8-16.5-12.5-18.3q0 0-0.1 0 0 0 0 0.1-0.1 0-0.1 0 0 0 0 0.1l-0.1 0.1q0 0.1 0 0.1-0.1 0.1-0.1 0.1 0 0.1-0.1 0.1 0 0.1-0.1 0.1z"/>
		<path id="Layer" fill-rule="evenodd" class="s3" d="m40.9 41.3c-7.4 1.7-19.9 9.6-11.5 18.2q0.1 0 0.2 0.1 0.1 0 0.2 0.1 0.1 0 0.2 0 0.1 0 0.2-0.1 17.3-7.1 35.9-7.7c0.3 0 1.1-0.3 0.1-0.5-8.8-1.7-17.4-4.2-24.4-9.9q-0.1-0.1-0.2-0.2-0.1 0-0.2-0.1-0.2 0-0.3 0-0.1 0-0.2 0.1z"/>
		<path id="Layer" fill-rule="evenodd" class="s3" d="m136.1 61q-17.5-6.7-36.1-7.5c-24-1.1-47.1-1.4-67.5 7.4q-1.5 0.7 0 1.4c21 10.3 44.2 10.9 67.1 9.5q19.6-1.1 36.6-9.8 1.2-0.6-0.1-1z"/>
		<path id="Layer" fill-rule="evenodd" class="s3" d="m63.5 73.1c-11.2-1.3-24-4.3-33.3-10.4q-0.1-0.1-0.2-0.2-0.1 0-0.2 0-0.2 0-0.3 0-0.1 0-0.2 0c-9.8 3.2-16.2 15.6-4 21.1q0.1 0.1 0.3 0.1 0.1 0.1 0.3 0.1 0.1 0 0.3 0 0.1-0.1 0.3-0.1 18.2-9.1 38.5-9.8 0.7 0 0.3-0.5c-0.1-0.2-1.6-0.3-1.8-0.3z"/>
		<path id="Layer" fill-rule="evenodd" class="s3" d="m147.6 79.8c5.7-7.5-1.3-15-8.6-17.2q-0.1 0-0.2 0-0.2 0-0.3 0-0.1 0-0.2 0.1-0.1 0-0.2 0.1c-9.6 6.2-23.6 9.2-34.4 10.5-0.8 0.1-0.5 0.4 0 0.4 13.2 1.1 26 3.8 37.9 10.1q0.1 0 0.2 0.1 0.2 0 0.3 0 0.1 0 0.2 0 0.1 0 0.2 0 2.7-1 5.1-4.1z"/>
		<path id="Layer" fill-rule="evenodd" class="s3" d="m139.3 84.7q-6.8-3.7-14.3-5.5c-17.6-4.4-32.6-4.5-53.7-4.1-13 0.2-30.1 3.2-42.8 9.7q-1.2 0.6 0.1 1.2 9.6 4.2 19.9 6.3c28.8 6 63.4 5.6 90.8-6.2q1.4-0.7 0-1.4z"/>
		<path id="Layer" fill-rule="evenodd" class="s3" d="m61.5 96.6c-12.6-2.2-23.6-4.3-35.3-9.9q-0.1 0-0.2-0.1-0.1 0-0.3 0-0.1 0-0.2 0-0.1 0.1-0.2 0.1c-6.2 2.9-8.8 9.6-4.5 15.5q2.3 3.2 8 5.7 0.1 0 0.2 0 0.2 0 0.3 0 0.1 0 0.2 0 0.1-0.1 0.2-0.1 14.7-8.4 31.7-10.1c0.7 0 1.4-0.8 0.1-1.1z"/>
		<path id="Layer" fill-rule="evenodd" class="s3" d="m147.9 101.6c4.1-5.5 0.8-12.2-4.7-14.9q-0.1-0.1-0.2-0.1-0.1 0-0.2 0-0.2 0-0.3 0-0.1 0-0.2 0.1-14.1 6.7-29.5 9c-1.5 0.3-4.4 0.3-6.4 1.1q-1.5 0.6 0.2 0.9c10.7 1.4 22 3.9 31.2 10.1q0.1 0 0.2 0.1 0.1 0 0.3 0.1 0.1 0 0.2 0 0.1 0 0.2-0.1 5.7-1.6 9.2-6.3z"/>
		<path id="Layer" fill-rule="evenodd" class="s3" d="m135.3 108.2q-8.9-4.9-18.8-7c-26.1-5.5-59.3-5.3-83.7 6.9q-2 0.9 0.1 1.7c31.7 11.6 70.6 10.8 102.3 0q1.8-0.6 0.1-1.6z"/>
		<path id="Layer" fill-rule="evenodd" class="s3" d="m27.9 112.7c-4.4 8.8 5.4 14.8 12.6 16.3q0.1 0 0.2 0 0.1 0 0.2 0 0.2-0.1 0.3-0.1 0.1-0.1 0.2-0.1 10.5-7.9 23.7-8.9c1.1-0.1 0.6-0.9-0.2-1q-16-1.5-31.2-6.8c-2.2-0.8-4.3-2.3-5.8 0.6z"/>
		<path id="Layer" fill-rule="evenodd" class="s3" d="m128 129c6.6-1.5 17.6-8.1 12-16.7q-1.2-1.8-3.2-1-15.5 5.9-33 7.7c-0.1 0-1.4 0.6-0.2 0.7q12.8 1.2 23 9 0.1 0.1 0.3 0.2 0.1 0.1 0.3 0.1 0.2 0.1 0.4 0.1 0.2 0 0.4-0.1z"/>
		<path id="Layer" fill-rule="evenodd" class="s3" d="m44.2 129.3q-0.5 1.1 0.6 1.4 39.3 10.6 78.3 0.2 2.1-0.6 0.5-2c-5.3-4.6-16-7-22.8-7.9-17.1-2.3-40.4-1.9-55.7 7.3q-0.1 0.1-0.2 0.2-0.2 0.1-0.3 0.3-0.1 0.1-0.2 0.2-0.1 0.2-0.2 0.3z"/>
		<path id="Layer" fill-rule="evenodd" class="s3" d="m59.8 144.5q3.1-5.4 8.9-6.4c2.7-0.5-0.2-1-0.6-1q-11.8-1.1-25.2-5.1-0.1-0.1-0.3 0-0.1 0-0.3 0.1-0.1 0-0.2 0.2-0.1 0.1-0.1 0.3c-1.6 7.4 11.8 11.1 16.8 12.3q0.1 0.1 0.3 0.1 0.1 0 0.3-0.1 0.1-0.1 0.2-0.2 0.1-0.1 0.2-0.2z"/>
		<path id="Layer" fill-rule="evenodd" class="s3" d="m109.2 144.9c4.2-1 20.4-5.8 16.6-12.5q0-0.1-0.1-0.2-0.1-0.1-0.2-0.1-0.1 0-0.2 0-0.1 0-0.2 0-13.1 4.2-26.8 5.3-0.6 0 0.2 0.2c3.6 0.9 8.5 2.7 9.6 6.6q0.1 0.2 0.2 0.4 0.1 0.1 0.3 0.2 0.1 0.1 0.3 0.1 0.1 0 0.3 0z"/>
		<path id="Layer" fill-rule="evenodd" class="s3" d="m62.1 144.1q-0.2 0.3-0.2 0.6 0 0.2 0.1 0.5 0.1 0.3 0.3 0.5 0.2 0.1 0.5 0.2 21.2 3.7 42.4 0.1 0.2-0.1 0.3-0.1 0.1-0.1 0.2-0.1 0.1-0.1 0.1-0.2 0.1-0.1 0.1-0.2c2.6-8.3-38.2-10.8-43.8-1.3z"/>
		<path id="Layer" fill-rule="evenodd" class="s3" d="m96.6 149c-11.6 0.8-17.8 0.6-29.8-0.4q-0.5-0.1-0.1 0.2 1.9 1 5.1 1.7 16.1 3.2 30.5-1.7 0.1 0 0.2-0.1 0.1 0 0.1-0.1 0.1-0.1 0.1-0.1 0-0.1 0-0.2c-0.1-0.5-0.6-0.2-0.9 0-1.8 1.2-3.6 0.6-5.2 0.7z"/>
		<path id="Layer" fill-rule="evenodd" class="s1" d="m145 205.3q1.8-1.3 0-2.6"/>
	</g>
	<path id="Layer" fill-rule="evenodd" class="s4" d="m161.3 1.3l5.6 3.7 0.1 158.8-4 4.7c-1.1 0.1-2.4 0.5-3.4 0.5q-76.2 0-152.4 0 0 0-0.1 0 0 0 0 0 0-0.1 0-0.1-0.1 0-0.1 0v-0.2q-3.7-1.9-5.7-5.5-0.2-0.5-0.1-1-0.2-77.6-0.2-155.2l4-5q1.8-1 5.6-1 73.3 0 146.7 0 3.3 0 4 0.3zm-133.6 59.6c-5 2.3-10.2 6.7-10.8 12.3-0.7 5.8 2.7 8.2 6.5 11.6q0.2 0.2 0.3 0.3 0 0.2 0 0.4 0 0.2-0.1 0.3-0.1 0.2-0.3 0.3-5.9 3.2-6.4 9.2c-0.6 6.3 5.2 11.3 10.5 13.8q0.1 0 0.1 0.1 0.1 0.1 0.1 0.2 0 0.1 0 0.2 0 0 0 0.1c-7.6 10.7 2.3 18.1 11.5 21q0.1 0 0.2 0 0.1 0.1 0.1 0.1 0.1 0.1 0.1 0.2 0 0.1 0 0.1 0.4 2.9 1 4.8c1.6 6 11.4 9.1 16.7 10.5 4.5 1.2 8.2 4.5 12.3 5.6q14.2 3.8 30.3-0.3c3.7-0.9 6.4-3.9 10.4-5 7-1.8 18.7-5.2 18.1-14.9q0-0.1 0-0.2 0-0.1 0.1-0.2 0-0.1 0.1-0.2 0.1-0.1 0.2-0.1c8.9-3.4 20.5-10.7 12-21.2q-0.1-0.1-0.1-0.2 0-0.1 0-0.1 0-0.1 0.1-0.2 0-0.1 0.1-0.1c11.4-5.9 15.1-14.7 4-23.7q-0.1-0.1-0.1-0.2 0-0.1 0-0.2 0-0.1 0-0.1 0-0.1 0.1-0.2c3.9-3.3 7.5-6.4 6.7-12-0.8-5.2-5.8-9.5-10.4-11.9q-0.1-0.1-0.2-0.1-0.1-0.1-0.1-0.2 0-0.1 0-0.2 0-0.1 0.1-0.2c7.5-11.2-3.5-17.5-12.3-21.1q0 0-0.1-0.1-0.1-0.1-0.2-0.1 0-0.1 0-0.3-0.1-0.1 0-0.2c1.5-11.8-14.6-12-21.1-16.2-11.3-7.3-34.5-7.7-45.3-0.2q-1.4 1-3.1 1.4c-6 1.4-17 4.8-18.7 11.6-0.4 1.4 0.6 3.5-1.1 4.4-5.7 2.8-12.3 5.8-13.9 11.6q-1.6 5.3 2.7 9.2 0.1 0.1 0.1 0.2 0 0.1 0 0.1 0 0.1 0 0.2-0.1 0.1-0.2 0.1z"/>
	<path id="Layer" class="s5" d="m161.3 1.3q3.5 0.4 5.6 3.7z"/>
	<path id="Layer" class="s5" d="m5 2l-4 5q0.7-3.5 4-5z"/>
	<path id="Layer" fill-rule="evenodd" class="s6" d="m27.8 60.3q-4.3-3.9-2.7-9.2c1.6-5.8 8.2-8.8 13.9-11.6 1.7-0.9 0.7-3 1.1-4.4 1.7-6.8 12.7-10.2 18.7-11.6q1.7-0.4 3.1-1.4c10.8-7.5 34-7.1 45.3 0.2 6.5 4.2 22.6 4.4 21.1 16.2q-0.1 0.1 0 0.2 0 0.2 0 0.3 0.1 0 0.2 0.1 0.1 0.1 0.1 0.1c8.8 3.6 19.8 9.9 12.3 21.1q-0.1 0.1-0.1 0.2 0 0.1 0 0.2 0 0.1 0.1 0.2 0.1 0 0.2 0.1c4.6 2.4 9.6 6.7 10.4 11.9 0.8 5.6-2.8 8.7-6.7 12q-0.1 0.1-0.1 0.2 0 0 0 0.1 0 0.1 0 0.2 0 0.1 0.1 0.2c11.1 9.1 7.5 17.8-4 23.7q-0.1 0-0.1 0.1-0.1 0.1-0.1 0.2 0 0 0 0.1 0 0.1 0.1 0.2c8.5 10.5-3.1 17.8-12 21.2q-0.1 0-0.2 0.1-0.1 0.1-0.1 0.2-0.1 0.1-0.1 0.2 0 0.1 0 0.2c0.6 9.7-11.1 13.1-18.1 14.9-4 1.1-6.7 4.1-10.4 5.1q-16.1 4-30.3 0.2c-4.1-1.1-7.8-4.4-12.3-5.6-5.3-1.3-15.1-4.5-16.7-10.5q-0.6-1.9-1-4.8 0 0 0-0.1 0-0.1-0.1-0.2 0 0-0.1-0.1-0.1 0-0.2 0c-9.2-2.9-19.1-10.3-11.5-21q0-0.1 0-0.1 0-0.1 0-0.2 0-0.1-0.1-0.2 0-0.1-0.1-0.1c-5.3-2.4-11.1-7.4-10.5-13.8q0.5-6 6.4-9.2 0.2-0.1 0.3-0.3 0.1-0.1 0.1-0.3 0-0.2 0-0.4-0.1-0.1-0.3-0.3c-3.8-3.4-7.2-5.8-6.5-11.6 0.6-5.6 5.8-10 10.8-12.3q0.1 0 0.2-0.1 0-0.1 0-0.2 0 0 0-0.1 0-0.1-0.1-0.2zm73.5-39.1q-17-4.7-34.1-0.2-0.2 0-0.3 0.1-0.1 0-0.2 0.1-0.1 0.1-0.2 0.2 0 0-0.1 0.1c-0.4 1 9.3-0.6 10.1-0.7q8.1-0.7 24.6 1c0.4 0.1 1.2-0.3 0.2-0.6zm3.7 6.1q2.9-2.6-1-3.1-20-2.7-40 0.1c-2.1 0.3-2.6 1.9-1 3.3 3 2.4 7.1 3.6 11.3 3.9 9.5 0.8 24.4 1.7 30.7-4.2zm2.6 0.3q-2.7 3.8-7.5 4.6c-1.3 0.2-0.7 0.9-0.1 0.9q12.8 1.5 25.2 5 0.2 0 0.5 0 0.2-0.1 0.4-0.2 0.1-0.1 0.2-0.3 0.1-0.2 0.1-0.4c0.2-7.1-12-10.6-17.5-11.9q-0.1 0-0.3 0-0.2 0-0.3 0-0.1 0-0.2 0.1 0 0.1 0 0.2l-0.1 1.2q0 0 0 0.2-0.1 0.1-0.1 0.2-0.1 0.1-0.1 0.2-0.1 0.1-0.2 0.2zm-64.3 5.5q-1.7 1.5-1.3 3.9 0.1 0.3 0.2 0.5 0.2 0.3 0.4 0.4 0.3 0.2 0.6 0.2 0.3 0 0.5-0.1 11.2-3.4 22.8-4.5 1-0.1 1.8-0.7 0.6-0.4-0.1-0.5-5.7-1.3-8.3-6.4-0.1-0.1-0.2-0.2 0-0.1-0.1-0.1-0.1 0-0.2-0.1-0.1 0-0.2 0.1-6.9 1.2-12.8 4.8-0.1 0.1-3.1 2.7zm80.5 6.8q-13.6-4.3-27.8-4.9c-16.1-0.7-33.9-0.3-50.1 4.3q-3.7 1.1-0.3 2.9c16.5 9.2 35.8 8.9 55 7q12.6-1.3 23.4-7.7 1.7-1-0.2-1.6zm2.4 1.7q-6.8 5.7-15.4 7.7c-1.5 0.3-9.5 2.1-9.5 2.1q0 0 0 0.1 0 0 0.1 0.1 0.1 0 0.2 0.1 0.1 0 0.2 0 18.7 1 36.2 7.8 0.2 0 0.4 0.1 0.2 0 0.3-0.1 0.2 0 0.4-0.1 0.1 0 0.2-0.2c8.4-8.8-5.8-16.5-12.5-18.2q0-0.1-0.1-0.1 0 0 0 0.1-0.1 0-0.1 0 0 0 0 0.1l-0.1 0.2q0 0 0 0-0.1 0.1-0.1 0.1 0 0.1-0.1 0.1 0 0.1-0.1 0.1zm-85.3-0.3c-7.4 1.7-19.9 9.6-11.5 18.2q0.1 0 0.2 0.1 0.1 0 0.2 0.1 0.1 0 0.2 0 0.1 0 0.2-0.1 17.3-7.1 35.9-7.7c0.3 0 1.1-0.3 0.1-0.5-8.8-1.7-17.4-4.2-24.4-9.9q-0.1-0.1-0.2-0.2-0.1 0-0.2-0.1-0.2 0-0.3 0-0.1 0-0.2 0.1zm95.2 19.7q-17.5-6.7-36.1-7.5c-24-1.1-47.1-1.4-67.5 7.4q-1.5 0.7 0 1.4c21 10.3 44.2 10.9 67.1 9.5q19.6-1.1 36.6-9.7 1.2-0.7-0.1-1.1zm-72.6 12.1c-11.2-1.3-24-4.3-33.3-10.4q-0.1-0.1-0.2-0.2-0.1 0-0.2 0-0.2 0-0.3 0-0.1 0-0.2 0c-9.8 3.2-16.2 15.6-4 21.1q0.1 0.1 0.3 0.1 0.1 0.1 0.3 0.1 0.1 0 0.3 0 0.1-0.1 0.3-0.1 18.2-9.1 38.5-9.8 0.7 0 0.3-0.5c-0.1-0.2-1.6-0.3-1.8-0.3zm84.1 6.7c5.7-7.5-1.3-15-8.6-17.2q-0.1 0-0.2 0-0.2 0-0.3 0-0.1 0-0.2 0.1-0.1 0-0.2 0.1c-9.6 6.2-23.6 9.2-34.4 10.5-0.8 0.1-0.5 0.4 0 0.4 13.2 1.1 26 3.8 37.9 10.1q0.1 0 0.2 0.1 0.2 0 0.3 0 0.1 0 0.2 0 0.1 0 0.2 0 2.7-1 5.1-4.1zm-8.3 4.9q-6.8-3.7-14.3-5.5c-17.6-4.4-32.6-4.5-53.7-4.1-13 0.2-30.1 3.2-42.8 9.7q-1.2 0.6 0.1 1.2 9.6 4.2 19.9 6.3c28.8 6 63.4 5.6 90.8-6.2q1.4-0.7 0-1.4zm-77.8 11.9c-12.6-2.2-23.6-4.3-35.3-9.9q-0.1 0-0.2-0.1-0.1 0-0.3 0-0.1 0-0.2 0-0.1 0.1-0.2 0.1c-6.2 2.9-8.8 9.6-4.5 15.5q2.3 3.2 8 5.7 0.1 0 0.2 0 0.2 0 0.3 0 0.1 0 0.2 0 0.1-0.1 0.2-0.1 14.7-8.4 31.7-10.1c0.7 0 1.4-0.8 0.1-1.1zm86.4 5c4.1-5.5 0.8-12.2-4.7-14.9q-0.1-0.1-0.2-0.1-0.1 0-0.2 0-0.2 0-0.3 0-0.1 0-0.2 0.1-14.1 6.7-29.5 9c-1.5 0.3-4.4 0.3-6.4 1.1q-1.5 0.6 0.2 0.9c10.7 1.4 22 3.9 31.2 10.1q0.1 0 0.2 0.1 0.1 0 0.3 0.1 0.1 0 0.2 0 0.1 0 0.2-0.1 5.7-1.6 9.2-6.3zm-12.6 6.6q-8.9-4.9-18.8-7c-26.1-5.4-59.3-5.3-83.7 6.9q-2 1 0.1 1.7c31.7 11.6 70.6 10.8 102.3 0q1.8-0.6 0.1-1.6zm-107.4 4.5c-4.4 8.8 5.4 14.8 12.6 16.3q0.1 0 0.2 0 0.1 0 0.2 0 0.2-0.1 0.3-0.1 0.1-0.1 0.2-0.1 10.5-7.9 23.7-8.9c1.1-0.1 0.6-0.9-0.2-1q-16-1.5-31.2-6.8c-2.2-0.8-4.3-2.3-5.8 0.6zm100.1 16.3c6.6-1.5 17.6-8.1 12-16.7q-1.2-1.8-3.2-1-15.5 5.9-33 7.7c-0.1 0-1.4 0.6-0.2 0.7q12.8 1.2 23 9 0.1 0.1 0.3 0.2 0.1 0.1 0.3 0.1 0.2 0.1 0.4 0.1 0.2 0 0.4-0.1zm-83.8 0.3q-0.5 1.1 0.6 1.4 39.3 10.6 78.3 0.2 2.1-0.6 0.5-2c-5.3-4.6-16-7-22.8-7.9-17.1-2.3-40.4-1.9-55.7 7.3q-0.1 0.1-0.2 0.2-0.2 0.1-0.3 0.3-0.1 0.1-0.2 0.2-0.1 0.2-0.2 0.3zm15.6 15.2q3.1-5.4 8.9-6.4c2.7-0.5-0.2-1-0.6-1q-11.8-1.1-25.2-5.1-0.1-0.1-0.3 0-0.1 0-0.3 0.1-0.1 0-0.2 0.2-0.1 0.1-0.1 0.3c-1.6 7.4 11.8 11.1 16.8 12.3q0.1 0.1 0.3 0.1 0.1 0 0.3-0.1 0.1-0.1 0.2-0.2 0.1-0.1 0.2-0.2zm49.4 0.4c4.2-1 20.4-5.8 16.6-12.5q0-0.1-0.1-0.2-0.1-0.1-0.2-0.1-0.1 0-0.2 0-0.1 0-0.2 0-13.1 4.2-26.8 5.3-0.6 0 0.2 0.2c3.6 0.9 8.5 2.7 9.6 6.7q0.1 0.1 0.2 0.3 0.1 0.1 0.3 0.2 0.1 0.1 0.3 0.1 0.1 0 0.3 0zm-47.1-0.8q-0.2 0.3-0.2 0.6 0 0.2 0.1 0.5 0.1 0.3 0.3 0.5 0.2 0.1 0.5 0.2 21.2 3.7 42.4 0.1 0.2-0.1 0.3-0.1 0.1-0.1 0.2-0.1 0.1-0.1 0.1-0.2 0.1-0.1 0.1-0.2c2.6-8.3-38.2-10.8-43.8-1.3zm34.5 4.9c-11.6 0.8-17.8 0.6-29.8-0.4q-0.5-0.1-0.1 0.2 1.9 1 5.1 1.7 16.1 3.2 30.5-1.7 0.1 0 0.2-0.1 0.1 0 0.1-0.1 0.1-0.1 0.1-0.1 0-0.1 0-0.2c-0.1-0.5-0.6-0.2-0.9 0-1.8 1.2-3.6 0.6-5.2 0.7z"/>
	<path id="Layer" class="s4" d="m101.3 21.2c1 0.3 0.2 0.7-0.2 0.6q-16.5-1.7-24.6-1c-0.8 0.1-10.5 1.7-10.1 0.7q0.1-0.1 0.1-0.1 0.1-0.1 0.2-0.2 0.1-0.1 0.2-0.1 0.1-0.1 0.3-0.1 17.1-4.5 34.1 0.2z"/>
	<path id="Layer" class="s4" d="m105 27.3c-6.3 5.9-21.2 5-30.7 4.2-4.2-0.3-8.3-1.5-11.3-4-1.6-1.3-1.1-3 1-3.2q20-2.8 40-0.1 3.9 0.5 1 3.1z"/>
	<path id="Layer" class="s4" d="m108 26.8l0.1-1.2q0-0.1 0-0.2 0.1-0.1 0.2-0.1 0.1 0 0.3 0 0.2 0 0.3 0c5.5 1.3 17.7 4.7 17.5 11.9q0 0.2-0.1 0.4-0.1 0.2-0.2 0.3-0.2 0.1-0.4 0.2-0.3 0-0.5 0-12.4-3.5-25.2-5c-0.6 0-1.2-0.7 0.1-0.9q4.8-0.8 7.5-4.6 0.1-0.1 0.2-0.2 0-0.1 0.1-0.2 0-0.1 0.1-0.2 0-0.2 0-0.3z"/>
	<path id="Layer" class="s4" d="m43.3 33.1q3-2.6 3.1-2.7 5.9-3.6 12.8-4.9 0.1 0 0.2 0 0.1 0.1 0.2 0.1 0.1 0 0.1 0.1 0.1 0.1 0.2 0.2 2.6 5.1 8.3 6.4 0.7 0.1 0.1 0.5-0.8 0.6-1.8 0.7-11.6 1.1-22.8 4.5-0.2 0.1-0.5 0.1-0.3 0-0.6-0.2-0.2-0.1-0.4-0.4-0.1-0.2-0.2-0.5-0.4-2.4 1.3-3.9z"/>
	<path id="Layer" class="s4" d="m123.8 39.9q1.9 0.6 0.2 1.6-10.8 6.4-23.4 7.7c-19.2 1.9-38.5 2.2-55-7q-3.4-1.8 0.3-2.9c16.2-4.6 34-5 50.1-4.3q14.2 0.6 27.8 4.9z"/>
	<path id="Layer" class="s4" d="m126.5 41.3l0.1-0.2q0-0.1 0-0.1 0 0 0.1 0 0-0.1 0-0.1 0.1 0 0.1 0c6.7 1.8 20.9 9.5 12.5 18.3q-0.1 0.2-0.2 0.2-0.2 0.1-0.4 0.1-0.1 0.1-0.3 0.1-0.2-0.1-0.4-0.1-17.5-6.8-36.2-7.8-0.1 0-0.2 0-0.1-0.1-0.2-0.1-0.1-0.1-0.1-0.1 0-0.1 0-0.1c0-0.1 8-1.8 9.5-2.1q8.6-2 15.4-7.7 0.1 0 0.1-0.1 0.1 0 0.1-0.1 0 0 0.1-0.1 0 0 0 0z"/>
	<path id="Layer" class="s4" d="m29.4 59.5c-8.4-8.6 4.1-16.5 11.5-18.3q0.1 0 0.2 0 0.1 0 0.3 0 0.1 0.1 0.2 0.1 0.1 0.1 0.2 0.1c7 5.8 15.6 8.3 24.4 10 1 0.2 0.2 0.5-0.1 0.5q-18.6 0.6-35.9 7.7-0.1 0.1-0.2 0.1-0.1 0-0.2 0-0.1-0.1-0.2-0.1-0.1-0.1-0.2-0.1z"/>
	<path id="Layer" class="s4" d="m136.1 61q1.3 0.4 0.1 1-17 8.7-36.6 9.8c-22.9 1.4-46.1 0.8-67.1-9.5q-1.5-0.7 0-1.4c20.4-8.8 43.5-8.5 67.5-7.4q18.6 0.8 36.1 7.5z"/>
	<path id="Layer" class="s4" d="m63.5 73.1c0.2 0 1.7 0.1 1.8 0.3q0.4 0.5-0.3 0.5-20.3 0.7-38.5 9.8-0.2 0-0.3 0.1-0.2 0-0.3 0-0.2 0-0.3-0.1-0.2 0-0.3-0.1c-12.2-5.5-5.8-17.9 4-21.1q0.1 0 0.2 0 0.1 0 0.3 0 0.1 0 0.2 0 0.1 0.1 0.2 0.2c9.3 6.1 22.1 9.1 33.3 10.4z"/>
	<path id="Layer" class="s4" d="m147.6 79.8q-2.4 3.1-5.1 4.1-0.1 0-0.2 0-0.1 0-0.2 0-0.1 0-0.3 0-0.1-0.1-0.2-0.1c-11.9-6.3-24.7-9-37.9-10.1-0.5 0-0.8-0.3 0-0.4 10.8-1.3 24.8-4.3 34.4-10.5q0.1-0.1 0.2-0.1 0.1-0.1 0.2-0.1 0.1 0 0.3 0 0.1 0 0.2 0c7.3 2.2 14.3 9.7 8.6 17.2z"/>
	<path id="Layer" class="s4" d="m139.3 84.7q1.4 0.7 0 1.4c-27.4 11.8-62 12.2-90.8 6.2q-10.3-2.1-20-6.3-1.2-0.6 0-1.2c12.7-6.5 29.8-9.5 42.8-9.7 21.1-0.4 36.1-0.3 53.7 4.1q7.5 1.8 14.3 5.5z"/>
	<path id="Layer" class="s4" d="m61.5 96.6c1.3 0.3 0.6 1.1-0.1 1.1q-17 1.7-31.7 10.1-0.1 0-0.2 0.1-0.1 0-0.2 0-0.1 0-0.3 0-0.1 0-0.2-0.1-5.7-2.4-8-5.6c-4.3-5.9-1.7-12.6 4.5-15.5q0.1 0 0.2-0.1 0.1 0 0.2 0 0.2 0 0.3 0 0.1 0.1 0.2 0.1c11.7 5.7 22.7 7.7 35.3 9.9z"/>
	<path id="Layer" class="s4" d="m147.9 101.6q-3.5 4.7-9.2 6.3-0.1 0.1-0.2 0.1-0.1 0-0.2 0-0.2-0.1-0.3-0.1-0.1-0.1-0.2-0.1c-9.2-6.2-20.5-8.7-31.2-10.1q-1.7-0.3-0.2-0.9c2-0.8 4.9-0.8 6.4-1.1q15.4-2.4 29.5-9 0.1-0.1 0.2-0.1 0.1 0 0.3 0 0.1 0 0.2 0 0.1 0 0.2 0.1c5.5 2.7 8.8 9.4 4.7 14.9z"/>
	<path id="Layer" class="s4" d="m135.3 108.2q1.7 1-0.1 1.6c-31.7 10.8-70.6 11.6-102.3 0q-2.1-0.8-0.1-1.7c24.4-12.2 57.6-12.4 83.7-6.9q9.9 2.1 18.8 7z"/>
	<path id="Layer" class="s4" d="m27.9 112.7c1.5-2.9 3.6-1.4 5.8-0.6q15.2 5.3 31.2 6.8c0.8 0.1 1.3 0.9 0.2 1q-13.2 1-23.7 8.9-0.1 0-0.2 0.1-0.1 0-0.3 0.1-0.1 0-0.2 0-0.1 0-0.2 0c-7.2-1.5-17-7.5-12.6-16.3z"/>
	<path id="Layer" class="s4" d="m140 112.3c5.6 8.6-5.4 15.2-12 16.7q-0.2 0.1-0.4 0.1-0.2 0-0.4-0.1-0.2 0-0.3-0.1-0.2-0.1-0.3-0.2-10.2-7.8-23-9c-1.2-0.1 0.1-0.7 0.2-0.7q17.5-1.8 33-7.7 2-0.8 3.2 1z"/>
	<path id="Layer" class="s4" d="m44.2 129.3q0.1-0.1 0.2-0.3 0.1-0.1 0.2-0.2 0.1-0.2 0.3-0.3 0.1-0.1 0.2-0.2c15.3-9.2 38.6-9.6 55.7-7.3 6.8 0.9 17.4 3.3 22.8 7.9q1.6 1.4-0.5 2-39 10.4-78.3-0.2-1.1-0.3-0.6-1.4z"/>
	<path id="Layer" class="s4" d="m59.8 144.5q-0.1 0.1-0.2 0.2-0.1 0.1-0.2 0.2-0.2 0.1-0.3 0.1-0.2 0-0.3-0.1c-5-1.2-18.4-4.9-16.8-12.3q0-0.2 0.1-0.3 0.1-0.2 0.2-0.2 0.2-0.1 0.3-0.1 0.2-0.1 0.3 0 13.4 4 25.2 5.1c0.4 0 3.3 0.5 0.6 1q-5.8 1-8.9 6.4z"/>
	<path id="Layer" class="s4" d="m125.8 132.4c3.8 6.7-12.4 11.5-16.6 12.5q-0.2 0-0.3 0-0.2 0-0.3-0.1-0.2-0.1-0.3-0.2-0.1-0.2-0.2-0.4c-1.1-3.9-6-5.7-9.6-6.6q-0.8-0.2-0.2-0.2 13.7-1.1 26.8-5.3 0.1 0 0.2 0 0.1 0 0.2 0 0.1 0 0.2 0.1 0.1 0.1 0.1 0.2z"/>
	<path id="Layer" class="s4" d="m62.1 144.1c5.6-9.5 46.4-7 43.8 1.3q0 0.1-0.1 0.2 0 0.1-0.1 0.2-0.1 0-0.2 0.1-0.1 0-0.3 0.1-21.2 3.6-42.4-0.1-0.3-0.1-0.5-0.2-0.2-0.2-0.3-0.5-0.1-0.3-0.1-0.5 0-0.3 0.2-0.6z"/>
	<path id="Layer" class="s4" d="m66.8 148.6c12 1 18.2 1.2 29.8 0.4 1.6-0.1 3.4 0.5 5.2-0.7 0.3-0.2 0.8-0.5 0.9 0q0 0.1 0 0.2 0 0-0.1 0.1 0 0.1-0.1 0.1-0.1 0.1-0.2 0.1-14.4 4.9-30.5 1.7-3.2-0.7-5.1-1.7-0.4-0.3 0.1-0.2z"/>
	<path id="Layer" class="s5" d="m1.3 163.3q2 3.5 5.7 5.4-4.8-0.7-5.7-5.5z"/>
	<path id="Layer" class="s5" d="m167 163.8q-0.7 3.5-4 4.7z"/>
	<path id="Layer" class="s7" d="m24.3 193q-0.6 1.6 0.9 1.5l15 25.5q-0.7 1.6 1 1.5c1.5-0.5 0.8-1.5 0.8-2.4q-0.1-16.6 0.1-33.5 0-0.1 0-0.2 0-0.1 0.1-0.2 0.1-0.1 0.1-0.1 0.1-0.1 0.2-0.1h14.8q0.1 0 0.2 0.1 0.2 0 0.3 0.1 0.1 0.2 0.1 0.3 0.1 0.1 0.1 0.3v58.7q0 0.3-0.1 0.6-0.1 0.2-0.3 0.4-0.2 0.3-0.4 0.4-0.2 0.1-0.5 0.1h-16.7q-0.2 0-0.3 0-0.2-0.1-0.4-0.2-0.1-0.1-0.3-0.2-0.1-0.2-0.2-0.4-9.8-16.4-19.6-32.9-0.9-1.6-1.2-2.4-0.1-0.2-0.1-0.3-0.1-0.1-0.2-0.2 0-0.1-0.1-0.1-0.1-0.1-0.1-0.1l-0.4 0.1q-0.1 0-0.1 0.1 0 0 0 0.1 0 0.1-0.1 0.2 0 0.2 0 0.3l0.1 35.2q0 0.1 0 0.3-0.1 0.1-0.2 0.3-0.1 0.1-0.3 0.1-0.1 0.1-0.3 0.1h-14.7q-0.1 0-0.2 0-0.1-0.1-0.2-0.2 0-0.1-0.1-0.3 0-0.1 0-0.3v-59.5q0-0.1 0.1-0.2 0-0.2 0.1-0.3 0.1-0.1 0.3-0.1 0.1-0.1 0.2-0.1h16.8q0.3 0 0.5 0.1 0.2 0 0.5 0.1 0.2 0.2 0.3 0.3 0.2 0.2 0.3 0.4z"/>
	<path id="Layer" class="s7" d="m85.3 231.4q-0.4 0.6 0.3 0.6h23.7q0.1 0 0.2 0.1 0.2 0 0.3 0.1 0.1 0.1 0.1 0.3 0.1 0.1 0.1 0.2v12.3q0 0.2-0.1 0.4 0 0.1-0.1 0.3-0.1 0.1-0.3 0.1-0.1 0.1-0.2 0.1l-42.6 0.2q-0.1-0.1-0.3-0.1-0.1 0-0.2-0.1-0.1-0.1-0.1-0.2-0.1-0.1-0.1-0.3l-0.1-11.7q0-0.1 0-0.2 0-0.2 0.1-0.3 0.1-0.2 0.2-0.4 0.1-0.2 0.2-0.3 9.8-13.7 19.3-26.6c1.1-1.5 2.2-3.6 4.1-5.1q0.8-0.7-0.5-0.7l-22.8-0.3q-0.1 0-0.2 0-0.1-0.1-0.1-0.2-0.1 0-0.2-0.2 0-0.1 0-0.2v-13.2q0-0.2 0.1-0.4 0.1-0.2 0.2-0.3 0.1-0.2 0.3-0.2 0.2-0.1 0.4-0.1h42.3q0.1 0 0.2 0.1 0.1 0 0.2 0.1 0.1 0.1 0.1 0.2 0.1 0.2 0.1 0.3c0.3 4 1 10.6-1.5 14.1q-11.5 15.9-23.1 31.6z"/>
	<path id="Layer" fill-rule="evenodd" class="s7" d="m158.2 213.8q-2.4 0.8-3.2 3.2l-5 2.1q-0.2 0.1-0.3 0.2-0.1 0.1-0.1 0.2-0.1 0.2 0 0.3 0 0.2 0.1 0.3l17.4 24.8q0.8 1.1-0.7 1.1h-16.6q-0.4 0-0.6-0.1-0.3-0.1-0.6-0.2-0.3-0.2-0.5-0.4-0.2-0.2-0.4-0.5l-12.2-19.8q1.1-1.4-0.5-1.5-1-0.3-1 0.7 0 10.4 0 20.8 0 0.2 0 0.3-0.1 0.1-0.2 0.2 0 0.1-0.1 0.2-0.1 0-0.3 0l-14.9 0.3q-0.3 0-0.6-0.1-0.2-0.1-0.5-0.3-0.2-0.3-0.3-0.5-0.1-0.3-0.1-0.6v-58.5q0-0.2 0.1-0.4 0.1-0.1 0.2-0.3 0.1-0.1 0.3-0.2 0.2 0 0.4-0.1 11.7-0.1 22.5 0.3c9.6 0.3 15.4 2.1 19.1 10.9q4 9.4-1.4 17.5zm-13.2-8.5q1.8-1.2 0-2.5c-0.7-4.5-7-4.4-10.4-3.5q-0.1 0.1-0.2 0.1-0.2 0.1-0.2 0.2-0.1 0.1-0.2 0.2 0 0.2 0 0.3v9.2q0 0.1 0 0.2 0.1 0.1 0.2 0.2 0.1 0.1 0.2 0.1 0.1 0 0.2 0.1c3.3 0.5 11 0.7 10.4-4.6z"/>
	<path id="Layer" class="s8" d="m24.3 193l0.9 1.5q-1.5 0.1-1-1.5z"/>
	<path id="Layer" class="s8" d="m145 202.8q1.8 1.2 0 2.4z"/>
	<path id="Layer" class="s5" d="m158.2 213.8q-1 2.1-3.2 3.2 0.8-2.4 3.2-3.3z"/>
	<path id="Layer" class="s8" d="m40.3 220l1 1.5q-1.8 0.1-1-1.5z"/>
	<path id="Layer" class="s8" d="m135.5 225l-0.5-1.5q1.6 0.1 0.5 1.5z"/>
	<path id="Layer" class="s7" d="m154.4 270.3c-4.1-12.5-19.4-1.1-8.4 1.9 10.5 2.9 22.5 6.4 21.2 19.8-1.3 13.8-16.8 15.7-27.8 12.8q-10-2.6-13.1-12.4-0.7-2.3 1.6-2.9l10.3-2.3q1.8-0.4 2.3 1.6c3.4 12.9 21.5 2.6 7.7-3-4.5-1.8-10.2-3.4-13.7-5.5-8-4.9-9.2-15.3-2.4-21.8 4.7-4.5 11.3-5.3 17.6-4.8 8 0.5 13.9 4 17.3 11.3q1.3 2.7-0.7 3.3-5.5 1.9-11.3 2.6-0.1 0-0.1-0.1-0.1 0-0.2-0.1-0.1-0.1-0.2-0.2 0-0.1-0.1-0.2z"/>
	<path id="Layer" fill-rule="evenodd" class="s7" d="m64 296h-18.3q-0.1 0-0.2 0-0.1 0.1-0.2 0.2-0.1 0.1-0.2 0.2-0.1 0.1-0.2 0.3l-2.2 7q-0.1 0.3-0.3 0.5-0.2 0.3-0.4 0.4-0.3 0.2-0.6 0.3-0.3 0.1-0.6 0.1h-39.3q-0.1 0-0.2 0-0.1-0.1-0.2-0.1 0-0.1-0.1-0.2 0-0.1 0-0.2v-50q0-0.1 0-0.2 0.1-0.1 0.1-0.2 0.1 0 0.2-0.1 0.1 0 0.2 0h12q0.1 0 0.2 0.1 0.1 0 0.2 0.1 0 0.1 0.1 0.3 0 0.1 0 0.3v37.7q0 0.1 0 0.2 0.1 0.1 0.1 0.2 0.1 0 0.2 0.1 0.1 0 0.2 0h13.2q0.3 0 0.6 0.1 0.3 0.1 0.5 0.3 0.2 0.2 0.3 0.4 0.1 0.3 0 0.5l-0.2 6q-0.1 0.1 0 0.2 0 0.1 0 0.2 0.1 0.1 0.1 0.2 0.1 0.1 0.2 0.1c0.4 0.1 0.5-0.1 0.6-0.4q8.3-22.9 16.7-45.6 0.1-0.2 0.2-0.4 0.1-0.2 0.3-0.3 0.1-0.2 0.3-0.2 0.2-0.1 0.4-0.1h15.3q0.1 0 0.2 0.1 0.1 0 0.2 0.1 0.1 0.1 0.2 0.3 0.1 0.1 0.1 0.3l18.3 49.5q0 0.1 0 0.2 0 0.1-0.1 0.3 0 0.1-0.1 0.1-0.1 0.1-0.2 0.1h-12.9q-0.1 0-0.1-0.1-0.1 0-0.2-0.1 0-0.1-0.1-0.2-0.1-0.1-0.1-0.3l-3.3-7.9q0-0.1-0.1-0.1-0.1-0.1-0.2-0.2-0.2 0-0.3-0.1-0.1 0-0.3 0zm-14.9-11.4q-0.1 0.1 0 0.2 0 0 0 0.1 0 0 0.1 0.1 0.1 0 0.2 0h11.6q0 0 0.1 0 0.1-0.1 0.1-0.1 0.1-0.1 0.1-0.2 0 0-0.1-0.1l-5.8-15.4q0 0-0.1-0.1-0.1-0.1-0.2-0.1-0.1 0-0.1 0.1-0.1 0.1-0.1 0.1z"/>
	<path id="Layer" fill-rule="evenodd" class="s7" d="m117.4 278.7c5.8 2 8.4 9.1 7.2 14.7q-2.5 12.2-16.4 11.8-10.4-0.3-21-0.2-0.2 0-0.4-0.1-0.3-0.1-0.4-0.2-0.2-0.2-0.3-0.5-0.1-0.2-0.1-0.4v-49q0-0.2 0.1-0.3 0-0.1 0.1-0.2 0.1-0.1 0.2-0.2 0.1 0 0.3 0c8.3-0.2 24.9-1.9 31 4.8 4.9 5.2 5.2 13.6-0.5 18.6q-1 0.8 0.2 1.2zm-11.1-12.5q-3.3-0.9-6.6-0.1-0.1 0-0.2 0.1-0.2 0-0.3 0.1-0.1 0.1-0.1 0.2-0.1 0.1-0.1 0.2v6.6q0 0.1 0.1 0.2 0 0.1 0.1 0.2 0.1 0.1 0.3 0.2 0.1 0 0.2 0c4 0.4 11.8-1.1 7.4-7.1q-0.1-0.1-0.2-0.2-0.1-0.1-0.2-0.2-0.1-0.1-0.2-0.1-0.1-0.1-0.2-0.1zm-6 27.9q4.7 0 9.2-1.3 0.1-0.1 0.2-0.1 0.1-0.1 0.2-0.2 0.1-0.1 0.2-0.2 0.1-0.1 0.1-0.2c5-8.1-6.3-8.6-10.6-7.9q-0.1 0.1-0.2 0.1-0.1 0-0.2 0.1-0.1 0.1-0.2 0.2 0 0.1 0 0.2v8.2q0 0.2 0.1 0.4 0.1 0.2 0.3 0.4 0.1 0.2 0.4 0.2 0.2 0.1 0.5 0.1z"/>
</svg>