<?xml version="1.0" standalone="yes"?>
<svg xmlns="http://www.w3.org/2000/svg" width="440" height="411">
<path style="fill:#060404; stroke:none;" d="M209 218L207 226C234.688 224.301 247.322 199.506 273 198C269.568 209.144 259.408 207.117 251.019 212.853C243.569 217.949 235.793 230.002 230.56 237.481C217.77 255.758 223.467 283.142 205.801 300.154C196.592 309.021 186.698 302.986 178.91 295.999C163.106 281.82 157.7 259.295 151 240C140.612 255.957 146.325 283.869 150.475 300.922C159.97 339.94 180.54 367.444 215.586 387C222.283 390.737 233.928 399.679 241.434 400.34C251.028 401.184 263.636 394.256 273 392C274.783 380.001 287.943 369.84 294.028 359.641C299.398 350.642 300.936 338.881 307.642 330.779C312.294 325.157 319.66 325.717 323.345 318.357C329.274 306.511 324.49 289.216 324.844 276.438C326.024 233.909 326.565 179 270 179C283.504 161.79 287.373 177.754 304.997 172.204C323.739 166.303 329.249 139.562 329 123C324.163 126.581 320.695 132.672 318 138C316.52 123.385 327.767 101.552 313 90L313 102C308.383 94.381 305.837 86.0949 298 81L300 94C295.531 86.4128 291.016 80.0911 283 76C289.78 91.8585 299.896 128.617 273 133L274 137C261.948 126.057 254.95 121.937 239 127C249.042 128.123 251.464 124.13 258 134L253 132C254.393 133.434 255.233 134.045 257 135C254.25 134.293 253.042 133.674 252 131C249.493 130.262 249.034 129.416 248 127C246.226 128.695 245.501 129.616 245 132C242.795 131.534 241.054 130.937 239 130L238 131L240 133C237.281 133.544 236.895 132.237 238 135C234.929 135.079 234.51 136.051 234 139C231.127 133.839 233.18 131.622 238 129C231.662 128.993 229.797 133.663 228 139L229 140C236.278 135.85 232.578 152.458 226 156C230.063 150.474 228.62 147.305 228 141C225.518 148.587 228.26 156.038 217 155C239.92 170.028 231.638 123.173 250.97 135.126C272.005 148.132 237.827 173.443 220 164L220 168C217.819 165.991 214.563 162.357 214 167C211.193 164.699 210.163 163.797 208 167C206.411 165.087 204.922 163.571 203 162C195.66 172.467 184.723 164.281 176 161C176.741 163.855 177.688 166.358 179 169C170.272 170.688 157.126 163.326 155.49 153.999C153.355 141.833 160.662 129.88 161.721 118.04C164.805 83.5659 155.584 28.2314 209 39C195.113 14.7433 158.873 14.42 136.863 25.8308C110.309 39.5977 95.7761 66.991 93.3388 96C90.9861 124.002 112.008 150.76 133.217 167.034C139.157 171.592 156.523 176.298 159.622 182.674C162.31 188.204 152.485 195.455 153.966 201.992C159.012 224.26 192.916 217.037 209 218z"/>
<path style="fill:#d90a17; stroke:none;" d="M108 113C111.996 88.1242 104.818 59.1545 134 45C120.74 64.8062 102.025 101.16 122 123C138.444 103.579 124.545 73.569 142.468 51.0185C149.373 42.3304 158.618 37.2223 168.866 33.5185C173.259 31.9308 181.603 31.8308 183 27C171.167 28.0052 159.524 26.0294 148.033 30.1912C117.745 41.16 91.2064 81.2516 108 113M168 39C146.644 46.9194 136.697 62.4086 138 85C125.628 85.6603 136.907 118.042 147 121C149.044 114.745 150.482 108.398 152 102C153.339 107.29 152.661 112.71 154 118C157.929 109.745 158.976 100.034 159 91C155.968 92.0584 153.203 92.7439 150 93C166.091 85.2431 153.296 76.3413 155.322 63C156.692 53.9841 163.653 46.9106 169 40L168 39M303 98C300.75 118.792 294.234 132.451 275 142C297.154 152.144 311.228 113.936 303 98M131 118C126.009 125.412 119.469 126.798 111 128C114.877 133.892 133.878 151.095 141 144C148.855 145.354 158.773 131.131 154.312 123.762C153.149 121.842 139.617 121.202 136 119C137.185 123.271 139.358 126.479 142 130C139.913 129.186 138.686 128.468 137 127C136.101 130.078 136.591 132.842 137 136C133.503 129.99 133.617 123.988 131 118M234 139C234.741 136.163 234.912 134.906 238 135C237.46 132.84 241.903 133.342 238 131L239 130C241.06 131.23 242.615 131.662 245 132C244.914 129.59 246.344 128.816 248 127C248.917 129.632 249.321 130.299 252 131C252.949 133.994 254.111 134.776 257 136C255.607 134.566 254.767 133.955 253 133L258 134C250.872 119.423 226.48 129.989 234 139M255 127C255.545 128.635 255.365 128.455 257 129C256.455 127.365 256.635 127.545 255 127M258 145C260.428 145 259.766 146.303 261 148C263.879 143.2 263.95 139.419 263 134C264.47 136.984 265.417 139.725 266 143C269.572 131.371 258.06 130.322 258 145z"/>
<path style="fill:#060404; stroke:none;" d="M262 133L263 134L262 133M227 134L228 135L227 134M137 136C137.777 138.803 138.789 141.355 140 144C140.166 140.746 138.93 138.577 137 136z"/>
<path style="fill:#d90a17; stroke:none;" d="M229 137C227.84 143.617 230.084 149.297 226 155C236.546 155.43 236.4 141.349 229 137z"/>
<path style="fill:#060404; stroke:none;" d="M317 138L316 139L317 138z"/>
<path style="fill:#d90a17; stroke:none;" d="M321 141C306.776 153.046 292.045 161.236 273 157C279.279 167.418 293.149 168 304 168C298.237 164.682 289.573 165.397 283 164C293.871 161.009 323.392 158.28 321 141M151 143C141.04 151.434 134.211 148.956 123 145C128.328 157.433 139.469 168.992 153 172L149 167C153.391 169.424 158.343 171.409 158 177C179.004 179.477 156.172 157.34 147 152C149.881 149.355 151.679 147.006 151 143M254 161C263.151 160.309 265.959 154.227 268 146L270 151C270.914 148.322 270.974 145.827 271 143C262.323 146.162 257.553 152.778 254 161M258 146L258 150C258.507 148.308 258.507 147.692 258 146M241 170C248.755 169.999 257.18 171.072 262 164C264.21 165.554 264.586 165.274 266 163C257.068 163.004 247.571 163.163 241 170z"/>
<path style="fill:#060404; stroke:none;" d="M146 164L149 167L146 164z"/>
<path style="fill:#d90a17; stroke:none;" d="M204 167C204.101 173.545 205.896 177.101 213 176C210.358 172.473 207.527 169.642 204 167M231 174C235.89 176.277 242.757 178.343 248 177C249.445 181.987 254.555 179.389 253.634 174.94C252.123 167.641 234.82 171.535 231 174M177 185C182.564 183.909 188.169 187.904 194 187.973C203.87 188.091 213.187 184.352 223 184L219 185L227 188L224 187L223 188C227.363 191.648 237.566 195.668 233 202C233.758 188.066 195.116 195 186 195C190.616 199.356 207.001 202.637 214 204L213 208C216.507 207.392 218.145 206.738 218 203C222.131 203.53 224.298 204.842 227 208C219.735 207.259 213.315 210.953 206 208.712C190.437 203.945 181.439 189.603 167 183C163.531 188.561 156.203 198.406 163 204L165 195C171.345 220.072 192.86 213 216 213C210.739 227.1 237.556 211.442 241 205C237.677 207.405 234.577 209.978 231 212C236.103 206.043 247.234 189.597 232 188C230.978 184.194 229.921 182.047 226 181C232.37 180.184 237.725 186.747 244 188L243 192L253 184C245.806 181.607 239.008 176.916 231 176.134C228.826 175.922 220.055 176.696 223 180C213.712 182.718 204.392 183.971 195 186C200.238 183.502 206.273 182.812 212 182C207.123 179.456 201.43 179.103 196 179L201 178C193.934 170.538 165.804 168.422 177 185z"/>
<path style="fill:#060404; stroke:none;" d="M186 177C188.678 177.914 191.173 177.974 194 178C191.322 177.086 188.827 177.026 186 177M255 182L254 183L255 182z"/>
<path style="fill:#d90a17; stroke:none;" d="M252 191L249 193C254.402 194.574 260.313 192.82 265 190C266.956 192.885 268.561 193.558 272 194C269.799 190.926 268.682 189.229 271 186C270.791 192.142 277.435 195.768 283 196C279.746 198.685 277.581 201.07 276 205C293.612 203.584 296.251 203.923 313 210C309.621 197.244 297.026 186.249 284 184C284.472 185.416 284.814 185.814 286 187C282.409 186.14 273.413 185.446 273 182C268.587 182.348 244.772 190.124 252 191z"/>
<path style="fill:#060404; stroke:none;" d="M266 184L267 185L266 184M271 185L272 186L271 185z"/>
<path style="fill:#d90a17; stroke:none;" d="M216.667 186.333C216.222 186.778 217.278 186.722 217.333 186.667C217.778 186.222 216.722 186.278 216.667 186.333z"/>
<path style="fill:#060404; stroke:none;" d="M242 186L243 187L242 186M286 187L287 188L286 187M253.667 190.333C253.222 190.778 254.278 190.722 254.333 190.667C254.778 190.222 253.722 190.278 253.667 190.333M195 198C197.603 198.83 199.343 198.643 202 198C199.619 197.609 197.412 197.815 195 198M203 198L202 204C205.368 203.445 207.753 204.097 211 205C209.198 201.881 205.55 200.587 203 198M193 199L194 200L193 199M218 203C216.768 210.323 207.385 207.501 202 207C210.211 212.117 218.209 207.934 227 208C224.696 204.228 222.344 203.302 218 203M213.333 204.667C213.278 204.722 213.222 205.778 213.667 205.333C213.722 205.278 213.778 204.222 213.333 204.667z"/>
<path style="fill:#d90a17; stroke:none;" d="M279 212C270.718 210.159 251.602 209.49 253 222C263.956 217.957 273.603 214.768 282.683 225.06C284.889 227.561 288.988 241.357 291.992 241.357C297.283 241.357 293.5 227.55 293 225C296.475 231.175 299.165 237.807 299 245C309.852 242.675 305.277 215.131 303 208C301.94 213.031 303.248 218.777 303 224C300.543 218.767 299.963 208.79 295.113 205.262C289.964 201.518 278.79 205.526 279 212z"/>
<path style="fill:#060404; stroke:none;" d="M229 214C230.635 213.455 230.455 213.635 231 212C229.365 212.545 229.545 212.365 229 214z"/>
<path style="fill:#d90a17; stroke:none;" d="M238 238C245.254 240.024 250.15 241.979 255 248C223.65 234.597 230.465 272.246 220.798 293.992C218.34 299.522 204.096 314.741 206.062 320.336C208.541 327.388 224.855 322.363 229.319 320.757C250.844 313.017 260.435 300.113 266 278L270 286C273.736 280.167 272.705 266.584 282 270C284.208 262.792 290.062 239.017 283.055 233.339C279.864 230.754 248.992 246.173 269.508 227.935C271.742 225.949 274.005 224.24 276 222C262.019 219 246.042 226.111 238 238z"/>
<path style="fill:#060404; stroke:none;" d="M262 241L263 242L262 241z"/>
<path style="fill:#d90a17; stroke:none;" d="M289 262C286.444 277.548 257.722 322.096 241 326C241 333.924 218.045 333.244 213 333C184.004 331.597 176.302 301.693 157 284C149.957 322.004 202.26 373.824 239.217 374.307C256.262 374.53 263.297 364.308 278 360C283.456 342.993 296.643 331.085 300 312C288.313 319.654 285.524 344.42 271 349C270.669 351.96 268.327 352.053 269 355L260 359C259.605 362.384 257.11 362.399 254 363C252.316 377.423 222.713 362.636 218 357C221.66 356.616 231.027 356.473 230 352C258.786 349.186 280.811 322.126 291.645 297.72C296.339 287.146 303.673 268.361 289 262z"/>
</svg>
